<svg width="33" height="33" viewBox="0 0 33 33" fill="none" xmlns="http://www.w3.org/2000/svg">
<circle cx="16.5" cy="16.5" r="16.5" fill="#830A48" fill-opacity="0.38"/>
<path d="M23.7266 12.9727C23.0703 13.4922 21.6484 14.5312 19.5156 16.0625L19.2422 16.2812C18.8047 16.6094 18.4766 16.8555 18.2031 16.9922C17.7656 17.2656 17.3555 17.375 17 17.375C16.6172 17.375 16.2344 17.2656 15.7969 17.0195C15.5234 16.8828 15.1953 16.6367 14.7578 16.3086L14.4844 16.0625C12.2695 14.4766 10.875 13.4375 10.2734 12.9727C10.2188 12.9453 10.1367 12.9453 10.082 12.9727C10.0273 13 10 13.0547 10 13.1094V18.6875C10 19.0703 10.1094 19.3711 10.3828 19.6172C10.6289 19.8906 10.9297 20 11.3125 20H22.6875C23.043 20 23.3438 19.8906 23.6172 19.6172C23.8633 19.3711 24 19.0703 24 18.6875V13.1094C24 13.0547 23.9453 13 23.8906 12.9453C23.8359 12.918 23.7812 12.918 23.7266 12.9727ZM17 16.5C16.7539 16.5 16.4531 16.3906 16.125 16.1719C15.9062 16.0625 15.6328 15.8711 15.2773 15.5703L15.0039 15.3789C12.7617 13.7383 11.2305 12.6172 10.4375 11.9883L10.2461 11.8516C10.082 11.7422 10 11.5508 10 11.332V10.8125C10 10.457 10.1094 10.1562 10.3828 9.88281C10.6289 9.63672 10.9297 9.5 11.3125 9.5H22.6875C23.043 9.5 23.3438 9.63672 23.6172 9.88281C23.8633 10.1562 24 10.457 24 10.8125V11.332C24 11.5508 23.918 11.7422 23.7539 11.8516L23.6172 11.9609C22.8242 12.5898 21.293 13.7383 18.9961 15.3789L18.7227 15.5703C18.3398 15.8711 18.0664 16.0625 17.875 16.1719C17.5195 16.3906 17.2188 16.5 17 16.5Z" fill="#F04FEA"/>
</svg>
