<svg width="134" height="33" viewBox="0 0 134 33" fill="none" xmlns="http://www.w3.org/2000/svg">
<path d="M39.7638 21.18C38.7678 21.18 37.9098 20.994 37.1898 20.622C36.4698 20.25 35.9118 19.722 35.5158 19.038C35.1318 18.354 34.9398 17.544 34.9398 16.608C34.9398 15.696 35.1258 14.898 35.4978 14.214C35.8818 13.53 36.4038 12.996 37.0638 12.612C37.7358 12.216 38.4978 12.018 39.3498 12.018C40.5978 12.018 41.5818 12.414 42.3018 13.206C43.0338 13.998 43.3998 15.078 43.3998 16.446V17.112H37.0998C37.2678 18.684 38.1678 19.47 39.7998 19.47C40.2918 19.47 40.7838 19.398 41.2758 19.254C41.7678 19.098 42.2178 18.858 42.6258 18.534L43.2558 20.046C42.8358 20.394 42.3078 20.67 41.6718 20.874C41.0358 21.078 40.3998 21.18 39.7638 21.18ZM39.4398 13.548C38.7798 13.548 38.2458 13.752 37.8378 14.16C37.4298 14.568 37.1838 15.12 37.0998 15.816H41.5278C41.4798 15.084 41.2758 14.526 40.9158 14.142C40.5678 13.746 40.0758 13.548 39.4398 13.548ZM45.2176 21V12.198H47.4136V13.548C47.6776 13.068 48.0436 12.696 48.5116 12.432C48.9796 12.156 49.5196 12.018 50.1316 12.018C51.4516 12.018 52.3156 12.594 52.7236 13.746C52.9996 13.206 53.3956 12.786 53.9116 12.486C54.4276 12.174 55.0156 12.018 55.6756 12.018C57.6556 12.018 58.6456 13.224 58.6456 15.636V21H56.3956V15.726C56.3956 15.054 56.2816 14.562 56.0536 14.25C55.8376 13.938 55.4656 13.782 54.9376 13.782C54.3496 13.782 53.8876 13.992 53.5516 14.412C53.2156 14.82 53.0476 15.39 53.0476 16.122V21H50.7976V15.726C50.7976 15.054 50.6836 14.562 50.4556 14.25C50.2396 13.938 49.8736 13.782 49.3576 13.782C48.7696 13.782 48.3076 13.992 47.9716 14.412C47.6356 14.82 47.4676 15.39 47.4676 16.122V21H45.2176ZM63.8648 21.18C63.2288 21.18 62.6588 21.06 62.1548 20.82C61.6628 20.568 61.2728 20.232 60.9848 19.812C60.7088 19.392 60.5708 18.918 60.5708 18.39C60.5708 17.742 60.7388 17.232 61.0748 16.86C61.4108 16.476 61.9568 16.2 62.7128 16.032C63.4688 15.864 64.4828 15.78 65.7548 15.78H66.3848V15.402C66.3848 14.802 66.2528 14.37 65.9888 14.106C65.7248 13.842 65.2808 13.71 64.6568 13.71C64.1648 13.71 63.6608 13.788 63.1448 13.944C62.6288 14.088 62.1068 14.316 61.5788 14.628L60.9308 13.098C61.2428 12.882 61.6088 12.696 62.0288 12.54C62.4608 12.372 62.9108 12.246 63.3788 12.162C63.8588 12.066 64.3088 12.018 64.7288 12.018C66.0128 12.018 66.9668 12.318 67.5908 12.918C68.2148 13.506 68.5268 14.424 68.5268 15.672V21H66.4208V19.596C66.2168 20.088 65.8928 20.478 65.4488 20.766C65.0048 21.042 64.4768 21.18 63.8648 21.18ZM64.3328 19.632C64.9208 19.632 65.4068 19.428 65.7908 19.02C66.1868 18.612 66.3848 18.096 66.3848 17.472V17.076H65.7728C64.6448 17.076 63.8588 17.166 63.4148 17.346C62.9828 17.514 62.7668 17.826 62.7668 18.282C62.7668 18.678 62.9048 19.002 63.1808 19.254C63.4568 19.506 63.8408 19.632 64.3328 19.632ZM70.6665 10.308V8.112H73.1865V10.308H70.6665ZM70.8105 21V12.198H73.0605V21H70.8105ZM78.4584 21.18C77.4144 21.18 76.6404 20.898 76.1364 20.334C75.6444 19.758 75.3984 18.918 75.3984 17.814V8.31H77.6484V17.706C77.6484 18.786 78.1044 19.326 79.0164 19.326C79.1484 19.326 79.2804 19.32 79.4124 19.308C79.5444 19.296 79.6704 19.272 79.7904 19.236L79.7544 21.018C79.3224 21.126 78.8904 21.18 78.4584 21.18ZM86.034 21V12.198H88.23V13.548C88.494 13.068 88.86 12.696 89.328 12.432C89.796 12.156 90.336 12.018 90.948 12.018C92.268 12.018 93.132 12.594 93.54 13.746C93.816 13.206 94.212 12.786 94.728 12.486C95.244 12.174 95.832 12.018 96.492 12.018C98.472 12.018 99.462 13.224 99.462 15.636V21H97.212V15.726C97.212 15.054 97.098 14.562 96.87 14.25C96.654 13.938 96.282 13.782 95.754 13.782C95.166 13.782 94.704 13.992 94.368 14.412C94.032 14.82 93.864 15.39 93.864 16.122V21H91.614V15.726C91.614 15.054 91.5 14.562 91.272 14.25C91.056 13.938 90.69 13.782 90.174 13.782C89.586 13.782 89.124 13.992 88.788 14.412C88.452 14.82 88.284 15.39 88.284 16.122V21H86.034ZM106.121 21.18C105.125 21.18 104.267 20.994 103.547 20.622C102.827 20.25 102.269 19.722 101.873 19.038C101.489 18.354 101.297 17.544 101.297 16.608C101.297 15.696 101.483 14.898 101.855 14.214C102.239 13.53 102.761 12.996 103.421 12.612C104.093 12.216 104.855 12.018 105.707 12.018C106.955 12.018 107.939 12.414 108.659 13.206C109.391 13.998 109.757 15.078 109.757 16.446V17.112H103.457C103.625 18.684 104.525 19.47 106.157 19.47C106.649 19.47 107.141 19.398 107.633 19.254C108.125 19.098 108.575 18.858 108.983 18.534L109.613 20.046C109.193 20.394 108.665 20.67 108.029 20.874C107.393 21.078 106.757 21.18 106.121 21.18ZM105.797 13.548C105.137 13.548 104.603 13.752 104.195 14.16C103.787 14.568 103.541 15.12 103.457 15.816H107.885C107.837 15.084 107.633 14.526 107.273 14.142C106.925 13.746 106.433 13.548 105.797 13.548Z" fill="#F04FEA"/>
<ellipse cx="14.8742" cy="16.5" rx="14.8742" ry="16.5" fill="#830A48" fill-opacity="0.38"/>
<path d="M22.7412 12.9727C22.1123 13.4648 21.3194 14.0664 18.5303 16.0898C17.9834 16.5 16.9717 17.4023 16.0147 17.4023C15.0303 17.4023 14.0459 16.5 13.4717 16.0898C10.6826 14.0664 9.88968 13.4648 9.26077 12.9727C9.1514 12.8906 9.01468 12.9727 9.01468 13.1094V18.6875C9.01468 19.4258 9.5889 20 10.3272 20H21.7022C22.4131 20 23.0147 19.4258 23.0147 18.6875V13.1094C23.0147 12.9727 22.8506 12.8906 22.7412 12.9727ZM16.0147 16.5C16.6436 16.5273 17.5459 15.707 18.0108 15.3789C21.6475 12.7539 21.9209 12.5078 22.7412 11.8516C22.9053 11.7422 23.0147 11.5508 23.0147 11.332V10.8125C23.0147 10.1016 22.4131 9.5 21.7022 9.5H10.3272C9.5889 9.5 9.01468 10.1016 9.01468 10.8125V11.332C9.01468 11.5508 9.09671 11.7422 9.26077 11.8516C10.0811 12.5078 10.3545 12.7539 13.9912 15.3789C14.4561 15.707 15.3584 16.5273 16.0147 16.5Z" fill="#F04FEA"/>
</svg>
