<svg width="648" height="391" viewBox="0 0 648 391" fill="none" xmlns="http://www.w3.org/2000/svg">
<path d="M10.1562 92.582C10.7422 85.681 10.8724 79.0729 10.5469 72.7578C10.2865 66.4427 9.76562 60.1602 8.98438 53.9102C8.20312 47.6602 7.29167 41.3125 6.25 34.8672C5.20833 28.4219 4.26432 21.651 3.41797 14.5547C3.41797 14.3594 3.38542 14.0339 3.32031 13.5781C3.32031 13.1224 3.32031 12.6341 3.32031 12.1133C3.32031 11.5273 3.32031 11.0065 3.32031 10.5508C3.38542 10.0951 3.41797 9.76953 3.41797 9.57422H6.83594C7.03125 10.7461 7.32422 12.569 7.71484 15.043C8.17057 17.5169 8.65885 20.3164 9.17969 23.4414C9.76562 26.5664 10.3516 29.8542 10.9375 33.3047C11.5885 36.7552 12.1745 40.043 12.6953 43.168C13.2812 46.293 13.8021 49.0924 14.2578 51.5664C14.7135 54.0404 15.0716 55.8633 15.332 57.0352C15.332 57.2305 15.3971 57.5885 15.5273 58.1094C15.7227 58.5651 15.8854 59.0534 16.0156 59.5742C16.2109 60.0951 16.3737 60.6159 16.5039 61.1367C16.6992 61.5924 16.862 61.918 16.9922 62.1133C17.1875 61.5924 17.5781 60.7135 18.1641 59.4766C18.8151 58.1745 19.4987 56.8073 20.2148 55.375C20.931 53.8776 21.6146 52.5104 22.2656 51.2734C22.9167 49.9714 23.4049 49.0599 23.7305 48.5391C24.7721 46.651 26.1068 44.9258 27.7344 43.3633C29.362 41.8008 30.957 40.8242 32.5195 40.4336C34.082 40.043 35.4492 40.4336 36.6211 41.6055C37.8581 42.7122 38.6393 45.0234 38.9648 48.5391C39.0299 49.3854 39.0951 50.6875 39.1602 52.4453C39.2904 54.2031 39.4206 56.2214 39.5508 58.5C39.681 60.7135 39.8112 63.0573 39.9414 65.5312C40.0716 68.0052 40.1693 70.349 40.2344 72.5625C40.3646 74.776 40.4622 76.7617 40.5273 78.5195C40.6576 80.2773 40.7227 81.5794 40.7227 82.4258C41.4388 83.3372 41.9596 84.4115 42.2852 85.6484C42.6758 86.8203 42.7083 87.9922 42.3828 89.1641C41.0807 89.6198 39.974 89.5872 39.0625 89.0664C38.151 88.5456 37.3698 87.8294 36.7188 86.918C36.0677 85.9414 35.5143 84.8672 35.0586 83.6953C34.6029 82.5234 34.2122 81.5143 33.8867 80.668C34.0169 78.194 34.1146 75.5247 34.1797 72.6602C34.2448 69.7956 34.2122 66.8984 34.082 63.9688C34.0169 60.974 33.8216 58.0117 33.4961 55.082C33.2357 52.1523 32.8125 49.3854 32.2266 46.7812C31.0547 46.1953 29.9479 46.4232 28.9062 47.4648C27.9297 48.5065 26.9857 50.1016 26.0742 52.25C25.2279 54.3333 24.4141 56.8073 23.6328 59.6719C22.8516 62.5365 22.1029 65.5638 21.3867 68.7539C20.6706 71.8789 19.9544 75.0039 19.2383 78.1289C18.5872 81.2539 17.9362 84.0859 17.2852 86.625C16.6992 89.1641 16.0807 91.2799 15.4297 92.9727C14.8438 94.6654 14.2253 95.6745 13.5742 96L10.1562 92.582ZM44.2188 90.9219C44.0885 90.6615 43.9258 90.1732 43.7305 89.457C43.5352 88.6758 43.3398 87.8294 43.1445 86.918C42.9492 86.0065 42.7865 85.1276 42.6562 84.2812C42.526 83.4349 42.4609 82.8164 42.4609 82.4258V34.9648C42.4609 34.3138 42.7539 33.8581 43.3398 33.5977C43.9258 33.3372 44.5768 33.207 45.293 33.207C46.0742 33.1419 46.7578 33.1419 47.3438 33.207C47.9948 33.2721 48.3529 33.3047 48.418 33.3047V85.8438C48.418 86.9505 48.776 87.862 49.4922 88.5781C50.2083 89.2943 51.0547 89.8802 52.0312 90.3359C53.0078 90.7266 54.0169 90.987 55.0586 91.1172C56.1003 91.1823 56.9792 91.1172 57.6953 90.9219C58.6068 92.2891 58.5742 93.3958 57.5977 94.2422C56.6862 95.0234 55.3516 95.4792 53.5938 95.6094C51.901 95.6745 50.1107 95.349 48.2227 94.6328C46.3997 93.8516 45.0651 92.6146 44.2188 90.9219ZM40.8008 17.9727C40.8008 16.0846 41.5495 14.8802 43.0469 14.3594C44.5443 13.7734 46.0742 13.8385 47.6367 14.5547V19.7305C47.4414 19.7956 47.0833 19.8607 46.5625 19.9258C46.1068 19.9258 45.5859 19.9258 45 19.9258C44.4792 19.9258 43.9583 19.9258 43.4375 19.9258C42.9818 19.8607 42.6562 19.7956 42.4609 19.7305C42.2005 19.6654 41.8424 19.4049 41.3867 18.9492C40.9961 18.4935 40.8008 18.168 40.8008 17.9727ZM54.5508 119.926C54.0299 119.21 53.8021 118.591 53.8672 118.07C53.8672 117.615 53.9974 117.191 54.2578 116.801C54.4531 116.475 54.7461 116.15 55.1367 115.824C55.5273 115.564 55.8854 115.238 56.2109 114.848C58.1641 112.243 59.8893 109.9 61.3867 107.816C62.9492 105.733 64.3164 103.65 65.4883 101.566C66.7253 99.4831 67.7995 97.237 68.7109 94.8281C69.6875 92.3542 70.599 89.4245 71.4453 86.0391C71.8359 84.3464 71.901 82.7513 71.6406 81.2539C71.3802 79.7565 71.0221 78.3242 70.5664 76.957C70.1107 75.5898 69.7526 74.2878 69.4922 73.0508C69.2318 71.7487 69.2969 70.4466 69.6875 69.1445C69.9479 68.3633 70.4036 67.8424 71.0547 67.582C71.7057 67.3216 72.3568 67.2565 73.0078 67.3867C73.724 67.4518 74.4076 67.6797 75.0586 68.0703C75.7096 68.3958 76.1979 68.7539 76.5234 69.1445C77.6953 70.3164 78.3464 72.0742 78.4766 74.418C78.6719 76.6966 78.4766 79.3333 77.8906 82.3281C77.3698 85.2578 76.5234 88.4154 75.3516 91.8008C74.1797 95.1211 72.8451 98.3438 71.3477 101.469C69.9154 104.659 68.3529 107.621 66.6602 110.355C65.0326 113.155 63.4375 115.434 61.875 117.191C60.3776 119.014 58.9779 120.219 57.6758 120.805C56.3737 121.391 55.332 121.098 54.5508 119.926ZM107.673 36.6V24.4H121.673V36.6H107.673ZM108.473 96V47.1H120.973V96H108.473ZM133.961 52.7L128.861 48.7C131.928 45.5 133.728 42.4 134.261 39.4H127.861V25.5H141.861V34.6C141.861 38.0667 141.261 41.2333 140.061 44.1C138.928 46.9 136.894 49.7667 133.961 52.7ZM148.966 96V47.1H161.166V54.6C162.632 51.9333 164.666 49.8667 167.266 48.4C169.866 46.8667 172.866 46.1 176.266 46.1C183.599 46.1 188.399 49.3 190.666 55.7C192.199 52.7 194.399 50.3667 197.266 48.7C200.132 46.9667 203.399 46.1 207.066 46.1C218.066 46.1 223.566 52.8 223.566 66.2V96H211.066V66.7C211.066 62.9667 210.432 60.2333 209.166 58.5C207.966 56.7667 205.899 55.9 202.966 55.9C199.699 55.9 197.132 57.0667 195.266 59.4C193.399 61.6667 192.466 64.8333 192.466 68.9V96H179.966V66.7C179.966 62.9667 179.332 60.2333 178.066 58.5C176.866 56.7667 174.832 55.9 171.966 55.9C168.699 55.9 166.132 57.0667 164.266 59.4C162.399 61.6667 161.466 64.8333 161.466 68.9V96H148.966ZM22.6 197C19.0667 197 15.9 196.333 13.1 195C10.3667 193.6 8.2 191.733 6.6 189.4C5.06667 187.067 4.3 184.433 4.3 181.5C4.3 177.9 5.23333 175.067 7.1 173C8.96667 170.867 12 169.333 16.2 168.4C20.4 167.467 26.0333 167 33.1 167H36.6V164.9C36.6 161.567 35.8667 159.167 34.4 157.7C32.9333 156.233 30.4667 155.5 27 155.5C24.2667 155.5 21.4667 155.933 18.6 156.8C15.7333 157.6 12.8333 158.867 9.9 160.6L6.3 152.1C8.03333 150.9 10.0667 149.867 12.4 149C14.8 148.067 17.3 147.367 19.9 146.9C22.5667 146.367 25.0667 146.1 27.4 146.1C34.5333 146.1 39.8333 147.767 43.3 151.1C46.7667 154.367 48.5 159.467 48.5 166.4V196H36.8V188.2C35.6667 190.933 33.8667 193.1 31.4 194.7C28.9333 196.233 26 197 22.6 197ZM25.2 188.4C28.4667 188.4 31.1667 187.267 33.3 185C35.5 182.733 36.6 179.867 36.6 176.4V174.2H33.2C26.9333 174.2 22.5667 174.7 20.1 175.7C17.7 176.633 16.5 178.367 16.5 180.9C16.5 183.1 17.2667 184.9 18.8 186.3C20.3333 187.7 22.4667 188.4 25.2 188.4ZM56.1875 196V147.1H68.3875V154.7C70.0542 151.9 72.2875 149.767 75.0875 148.3C77.9542 146.833 81.1542 146.1 84.6875 146.1C96.2208 146.1 101.988 152.8 101.988 166.2V196H89.4875V166.8C89.4875 163 88.7542 160.233 87.2875 158.5C85.8875 156.767 83.6875 155.9 80.6875 155.9C77.0208 155.9 74.0875 157.067 71.8875 159.4C69.7542 161.667 68.6875 164.7 68.6875 168.5V196H56.1875ZM128.484 197C124.217 197 120.45 195.967 117.184 193.9C113.984 191.833 111.484 188.9 109.684 185.1C107.884 181.233 106.984 176.7 106.984 171.5C106.984 166.233 107.884 161.733 109.684 158C111.484 154.2 113.984 151.267 117.184 149.2C120.45 147.133 124.217 146.1 128.484 146.1C131.95 146.1 135.084 146.867 137.884 148.4C140.684 149.933 142.784 151.967 144.184 154.5V125.5H156.684V196H144.484V187.9C143.15 190.7 141.05 192.933 138.184 194.6C135.317 196.2 132.084 197 128.484 197ZM131.984 187.5C135.717 187.5 138.717 186.167 140.984 183.5C143.25 180.767 144.384 176.767 144.384 171.5C144.384 166.167 143.25 162.2 140.984 159.6C138.717 156.933 135.717 155.6 131.984 155.6C128.25 155.6 125.25 156.933 122.984 159.6C120.717 162.2 119.584 166.167 119.584 171.5C119.584 176.767 120.717 180.767 122.984 183.5C125.25 186.167 128.25 187.5 131.984 187.5ZM169.045 214L178.045 194L157.745 147.1H171.045L184.745 181.3L198.745 147.1H211.345L181.945 214H169.045ZM234.434 196V147.1H246.634V154.6C248.101 151.933 250.134 149.867 252.734 148.4C255.334 146.867 258.334 146.1 261.734 146.1C269.068 146.1 273.868 149.3 276.134 155.7C277.668 152.7 279.868 150.367 282.734 148.7C285.601 146.967 288.868 146.1 292.534 146.1C303.534 146.1 309.034 152.8 309.034 166.2V196H296.534V166.7C296.534 162.967 295.901 160.233 294.634 158.5C293.434 156.767 291.368 155.9 288.434 155.9C285.168 155.9 282.601 157.067 280.734 159.4C278.868 161.667 277.934 164.833 277.934 168.9V196H265.434V166.7C265.434 162.967 264.801 160.233 263.534 158.5C262.334 156.767 260.301 155.9 257.434 155.9C254.168 155.9 251.601 157.067 249.734 159.4C247.868 161.667 246.934 164.833 246.934 168.9V196H234.434ZM339.53 197C334.396 197 329.93 195.967 326.13 193.9C322.33 191.767 319.396 188.767 317.33 184.9C315.263 181.033 314.23 176.5 314.23 171.3C314.23 166.1 315.263 161.633 317.33 157.9C319.396 154.1 322.33 151.2 326.13 149.2C329.93 147.133 334.396 146.1 339.53 146.1C342.663 146.1 345.763 146.6 348.83 147.6C351.896 148.6 354.43 150 356.43 151.8L352.73 160.5C350.996 158.967 349.03 157.8 346.83 157C344.696 156.2 342.63 155.8 340.63 155.8C336.296 155.8 332.93 157.167 330.53 159.9C328.196 162.567 327.03 166.4 327.03 171.4C327.03 176.333 328.196 180.233 330.53 183.1C332.93 185.9 336.296 187.3 340.63 187.3C342.563 187.3 344.63 186.9 346.83 186.1C349.03 185.3 350.996 184.1 352.73 182.5L356.43 191.3C354.43 193.033 351.863 194.433 348.73 195.5C345.663 196.5 342.596 197 339.53 197ZM358.298 136.6V124.4H372.298V136.6H358.298ZM359.098 196V147.1H371.598V196H359.098ZM379.586 196V147.1H391.786V154.7C393.453 151.9 395.686 149.767 398.486 148.3C401.353 146.833 404.553 146.1 408.086 146.1C419.619 146.1 425.386 152.8 425.386 166.2V196H412.886V166.8C412.886 163 412.153 160.233 410.686 158.5C409.286 156.767 407.086 155.9 404.086 155.9C400.419 155.9 397.486 157.067 395.286 159.4C393.153 161.667 392.086 164.7 392.086 168.5V196H379.586ZM433.082 196V147.1H445.282V154.7C446.949 151.9 449.182 149.767 451.982 148.3C454.849 146.833 458.049 146.1 461.582 146.1C473.115 146.1 478.882 152.8 478.882 166.2V196H466.382V166.8C466.382 163 465.649 160.233 464.182 158.5C462.782 156.767 460.582 155.9 457.582 155.9C453.915 155.9 450.982 157.067 448.782 159.4C446.649 161.667 445.582 164.7 445.582 168.5V196H433.082ZM510.678 197C505.145 197 500.378 195.967 496.378 193.9C492.378 191.833 489.278 188.9 487.078 185.1C484.945 181.3 483.878 176.8 483.878 171.6C483.878 166.533 484.911 162.1 486.978 158.3C489.111 154.5 492.011 151.533 495.678 149.4C499.411 147.2 503.645 146.1 508.378 146.1C515.311 146.1 520.778 148.3 524.778 152.7C528.845 157.1 530.878 163.1 530.878 170.7V174.4H495.878C496.811 183.133 501.811 187.5 510.878 187.5C513.611 187.5 516.345 187.1 519.078 186.3C521.811 185.433 524.311 184.1 526.578 182.3L530.078 190.7C527.745 192.633 524.811 194.167 521.278 195.3C517.745 196.433 514.211 197 510.678 197ZM508.878 154.6C505.211 154.6 502.245 155.733 499.978 158C497.711 160.267 496.345 163.333 495.878 167.2H520.478C520.211 163.133 519.078 160.033 517.078 157.9C515.145 155.7 512.411 154.6 508.878 154.6ZM553.677 197C549.544 197 545.677 196.5 542.077 195.5C538.477 194.5 535.477 193.067 533.077 191.2L536.277 183C538.744 184.667 541.511 185.967 544.577 186.9C547.644 187.767 550.711 188.2 553.777 188.2C556.977 188.2 559.344 187.667 560.877 186.6C562.477 185.467 563.277 184 563.277 182.2C563.277 179.4 561.211 177.6 557.077 176.8L547.077 174.9C538.611 173.3 534.377 168.9 534.377 161.7C534.377 158.5 535.244 155.733 536.977 153.4C538.777 151.067 541.244 149.267 544.377 148C547.511 146.733 551.111 146.1 555.177 146.1C558.644 146.1 561.977 146.6 565.177 147.6C568.377 148.533 571.111 149.967 573.377 151.9L569.977 160.1C568.044 158.5 565.711 157.233 562.977 156.3C560.311 155.367 557.744 154.9 555.277 154.9C552.011 154.9 549.577 155.467 547.977 156.6C546.444 157.733 545.677 159.233 545.677 161.1C545.677 164.033 547.577 165.833 551.377 166.5L561.377 168.4C565.711 169.2 568.977 170.667 571.177 172.8C573.444 174.933 574.577 177.8 574.577 181.4C574.577 186.267 572.677 190.1 568.877 192.9C565.077 195.633 560.011 197 553.677 197Z" fill="white"/>
<path d="M182 230C527.384 204.645 599.606 219.435 592.544 230" stroke="#F04FEA" stroke-width="8"/>
<path d="M2.944 309V286.44H4.896V309H2.944ZM10.5958 295.112L10.0518 286.44H12.3878L11.9078 295.112H10.5958ZM21.7618 309L15.1058 293.48H17.2818L22.7538 306.856L28.3218 293.48H30.3698L23.7138 309H21.7618ZM39.9995 309.256C37.6102 309.256 35.7222 308.552 34.3355 307.144C32.9702 305.715 32.2875 303.763 32.2875 301.288C32.2875 299.688 32.5968 298.28 33.2155 297.064C33.8342 295.848 34.6875 294.899 35.7755 294.216C36.8848 293.533 38.1542 293.192 39.5835 293.192C41.6528 293.192 43.2635 293.864 44.4155 295.208C45.5675 296.552 46.1435 298.397 46.1435 300.744V301.64H34.2075C34.2715 303.56 34.7942 305.043 35.7755 306.088C36.7782 307.112 38.1648 307.624 39.9355 307.624C40.8955 307.624 41.7915 307.475 42.6235 307.176C43.4768 306.877 44.3088 306.376 45.1195 305.672L45.8875 307.144C45.2048 307.805 44.3302 308.328 43.2635 308.712C42.1968 309.075 41.1088 309.256 39.9995 309.256ZM39.6155 294.76C37.9942 294.76 36.7248 295.272 35.8075 296.296C34.9115 297.299 34.3888 298.6 34.2395 300.2H44.3835C44.3408 298.493 43.9142 297.16 43.1035 296.2C42.2928 295.24 41.1302 294.76 39.6155 294.76ZM65.5458 309.256C64.2871 309.256 63.1778 308.979 62.2178 308.424C61.2791 307.848 60.5751 307.059 60.1058 306.056V309H58.1538V286.44H60.1058V296.36C60.5751 295.379 61.2791 294.611 62.2178 294.056C63.1778 293.48 64.2871 293.192 65.5458 293.192C67.6364 293.192 69.3004 293.917 70.5378 295.368C71.7964 296.819 72.4258 298.771 72.4258 301.224C72.4258 302.867 72.1378 304.296 71.5618 305.512C71.0071 306.707 70.2071 307.635 69.1618 308.296C68.1378 308.936 66.9324 309.256 65.5458 309.256ZM65.2578 307.624C66.8364 307.624 68.0951 307.069 69.0338 305.96C69.9724 304.829 70.4418 303.251 70.4418 301.224C70.4418 299.197 69.9724 297.629 69.0338 296.52C68.0951 295.411 66.8364 294.856 65.2578 294.856C63.6791 294.856 62.4204 295.411 61.4818 296.52C60.5431 297.629 60.0738 299.197 60.0738 301.224C60.0738 303.251 60.5431 304.829 61.4818 305.96C62.4204 307.069 63.6791 307.624 65.2578 307.624ZM83.312 309.256C80.9227 309.256 79.0347 308.552 77.648 307.144C76.2827 305.715 75.6 303.763 75.6 301.288C75.6 299.688 75.9093 298.28 76.528 297.064C77.1467 295.848 78 294.899 79.088 294.216C80.1973 293.533 81.4667 293.192 82.896 293.192C84.9653 293.192 86.576 293.864 87.728 295.208C88.88 296.552 89.456 298.397 89.456 300.744V301.64H77.52C77.584 303.56 78.1067 305.043 79.088 306.088C80.0907 307.112 81.4773 307.624 83.248 307.624C84.208 307.624 85.104 307.475 85.936 307.176C86.7893 306.877 87.6213 306.376 88.432 305.672L89.2 307.144C88.5173 307.805 87.6427 308.328 86.576 308.712C85.5093 309.075 84.4213 309.256 83.312 309.256ZM82.928 294.76C81.3067 294.76 80.0373 295.272 79.12 296.296C78.224 297.299 77.7013 298.6 77.552 300.2H87.696C87.6533 298.493 87.2267 297.16 86.416 296.2C85.6053 295.24 84.4427 294.76 82.928 294.76ZM100.187 309.256C97.7977 309.256 95.9097 308.552 94.523 307.144C93.1577 305.715 92.475 303.763 92.475 301.288C92.475 299.688 92.7843 298.28 93.403 297.064C94.0217 295.848 94.875 294.899 95.963 294.216C97.0723 293.533 98.3417 293.192 99.771 293.192C101.84 293.192 103.451 293.864 104.603 295.208C105.755 296.552 106.331 298.397 106.331 300.744V301.64H94.395C94.459 303.56 94.9817 305.043 95.963 306.088C96.9657 307.112 98.3523 307.624 100.123 307.624C101.083 307.624 101.979 307.475 102.811 307.176C103.664 306.877 104.496 306.376 105.307 305.672L106.075 307.144C105.392 307.805 104.518 308.328 103.451 308.712C102.384 309.075 101.296 309.256 100.187 309.256ZM99.803 294.76C98.1817 294.76 96.9123 295.272 95.995 296.296C95.099 297.299 94.5763 298.6 94.427 300.2H104.571C104.528 298.493 104.102 297.16 103.291 296.2C102.48 295.24 101.318 294.76 99.803 294.76ZM110.31 309V293.48H112.23V296.264C112.742 295.24 113.478 294.472 114.438 293.96C115.398 293.448 116.465 293.192 117.638 293.192C121.329 293.192 123.174 295.197 123.174 299.208V309H121.222V299.368C121.222 297.832 120.913 296.701 120.294 295.976C119.675 295.251 118.694 294.888 117.35 294.888C115.814 294.888 114.577 295.368 113.638 296.328C112.721 297.267 112.262 298.536 112.262 300.136V309H110.31ZM140.344 309L134.712 293.48H136.792L141.368 306.696L146.136 293.48H148.056L152.728 306.728L157.4 293.48H159.416L153.752 309H151.736L147.064 296.008L142.36 309H140.344ZM168.955 309.256C167.504 309.256 166.245 308.936 165.179 308.296C164.112 307.635 163.28 306.707 162.683 305.512C162.107 304.296 161.819 302.867 161.819 301.224C161.819 299.603 162.107 298.195 162.683 297C163.28 295.784 164.112 294.845 165.179 294.184C166.245 293.523 167.504 293.192 168.955 293.192C170.427 293.192 171.696 293.523 172.763 294.184C173.829 294.845 174.651 295.784 175.227 297C175.824 298.195 176.123 299.603 176.123 301.224C176.123 302.867 175.824 304.296 175.227 305.512C174.651 306.707 173.829 307.635 172.763 308.296C171.696 308.936 170.427 309.256 168.955 309.256ZM168.955 307.624C170.533 307.624 171.792 307.069 172.731 305.96C173.669 304.829 174.139 303.251 174.139 301.224C174.139 299.197 173.669 297.629 172.731 296.52C171.792 295.411 170.533 294.856 168.955 294.856C167.376 294.856 166.117 295.411 165.179 296.52C164.261 297.629 163.803 299.197 163.803 301.224C163.803 303.251 164.261 304.829 165.179 305.96C166.117 307.069 167.376 307.624 168.955 307.624ZM180.279 309V293.48H182.199V296.296C182.647 295.315 183.297 294.568 184.151 294.056C185.004 293.544 186.092 293.245 187.415 293.16L188.215 293.096L188.407 294.792L187.031 294.952C185.516 295.08 184.343 295.581 183.511 296.456C182.679 297.309 182.263 298.461 182.263 299.912V309H180.279ZM191.216 309V286.44H193.168V300.52H193.232L200.88 293.48H203.472L195.312 300.968L204.24 309H201.648L193.232 301.544H193.168V309H191.216ZM206.396 289.384V286.92H209.02V289.384H206.396ZM206.716 309V293.48H208.668V309H206.716ZM213.81 309V293.48H215.73V296.264C216.242 295.24 216.978 294.472 217.938 293.96C218.898 293.448 219.965 293.192 221.138 293.192C224.829 293.192 226.674 295.197 226.674 299.208V309H224.722V299.368C224.722 297.832 224.413 296.701 223.794 295.976C223.175 295.251 222.194 294.888 220.85 294.888C219.314 294.888 218.077 295.368 217.138 296.328C216.221 297.267 215.762 298.536 215.762 300.136V309H213.81ZM238.468 315.016C235.759 315.016 233.508 314.301 231.716 312.872L232.452 311.4C233.434 312.104 234.383 312.605 235.3 312.904C236.218 313.224 237.252 313.384 238.404 313.384C239.962 313.384 241.146 312.957 241.956 312.104C242.767 311.251 243.172 310.013 243.172 308.392V305.384C242.724 306.408 242.01 307.208 241.028 307.784C240.068 308.36 238.97 308.648 237.732 308.648C236.282 308.648 235.034 308.328 233.988 307.688C232.964 307.027 232.164 306.12 231.588 304.968C231.034 303.795 230.756 302.44 230.756 300.904C230.756 299.368 231.034 298.024 231.588 296.872C232.164 295.72 232.964 294.824 233.988 294.184C235.034 293.523 236.282 293.192 237.732 293.192C238.97 293.192 240.068 293.48 241.028 294.056C241.988 294.632 242.692 295.421 243.14 296.424V293.48H245.06V308.104C245.06 312.712 242.863 315.016 238.468 315.016ZM237.956 306.984C239.556 306.984 240.826 306.44 241.764 305.352C242.703 304.243 243.172 302.76 243.172 300.904C243.172 299.048 242.703 297.576 241.764 296.488C240.826 295.4 239.556 294.856 237.956 294.856C236.335 294.856 235.055 295.4 234.116 296.488C233.199 297.576 232.74 299.048 232.74 300.904C232.74 302.76 233.199 304.243 234.116 305.352C235.055 306.44 236.335 306.984 237.956 306.984ZM264.424 309.256C262.973 309.256 261.714 308.936 260.648 308.296C259.581 307.635 258.749 306.707 258.152 305.512C257.576 304.296 257.288 302.867 257.288 301.224C257.288 299.603 257.576 298.195 258.152 297C258.749 295.784 259.581 294.845 260.648 294.184C261.714 293.523 262.973 293.192 264.424 293.192C265.896 293.192 267.165 293.523 268.232 294.184C269.298 294.845 270.12 295.784 270.696 297C271.293 298.195 271.592 299.603 271.592 301.224C271.592 302.867 271.293 304.296 270.696 305.512C270.12 306.707 269.298 307.635 268.232 308.296C267.165 308.936 265.896 309.256 264.424 309.256ZM264.424 307.624C266.002 307.624 267.261 307.069 268.2 305.96C269.138 304.829 269.608 303.251 269.608 301.224C269.608 299.197 269.138 297.629 268.2 296.52C267.261 295.411 266.002 294.856 264.424 294.856C262.845 294.856 261.586 295.411 260.648 296.52C259.73 297.629 259.272 299.197 259.272 301.224C259.272 303.251 259.73 304.829 260.648 305.96C261.586 307.069 262.845 307.624 264.424 307.624ZM275.748 309V293.48H277.668V296.264C278.18 295.24 278.916 294.472 279.876 293.96C280.836 293.448 281.902 293.192 283.076 293.192C286.766 293.192 288.612 295.197 288.612 299.208V309H286.66V299.368C286.66 297.832 286.35 296.701 285.732 295.976C285.113 295.251 284.132 294.888 282.788 294.888C281.252 294.888 280.014 295.368 279.076 296.328C278.158 297.267 277.7 298.536 277.7 300.136V309H275.748ZM301.749 309V293.48H303.669V296.2C304.629 294.195 306.261 293.192 308.565 293.192C311.04 293.192 312.608 294.269 313.269 296.424C313.717 295.421 314.4 294.632 315.317 294.056C316.234 293.48 317.301 293.192 318.517 293.192C321.952 293.192 323.669 295.197 323.669 299.208V309H321.717V299.368C321.717 297.832 321.44 296.701 320.885 295.976C320.352 295.251 319.445 294.888 318.165 294.888C316.8 294.888 315.712 295.368 314.901 296.328C314.09 297.267 313.685 298.547 313.685 300.168V309H311.733V299.368C311.733 297.832 311.456 296.701 310.901 295.976C310.368 295.251 309.472 294.888 308.213 294.888C306.826 294.888 305.728 295.368 304.917 296.328C304.106 297.267 303.701 298.547 303.701 300.168V309H301.749ZM330.607 314.76L333.167 308.936L326.575 293.48H328.751L334.223 306.856L339.759 293.48H341.871L332.719 314.76H330.607ZM353.671 309V295.048H350.599V293.48H353.671V292.712C353.671 288.765 355.666 286.675 359.655 286.44L360.775 286.344L360.935 287.944L359.463 288.04C358.14 288.125 357.17 288.541 356.551 289.288C355.932 290.035 355.623 291.123 355.623 292.552V293.48H360.199V295.048H355.623V309H353.671ZM363.154 309V293.48H365.074V296.296C365.522 295.315 366.172 294.568 367.026 294.056C367.879 293.544 368.967 293.245 370.29 293.16L371.09 293.096L371.282 294.792L369.906 294.952C368.391 295.08 367.218 295.581 366.386 296.456C365.554 297.309 365.138 298.461 365.138 299.912V309H363.154ZM380.08 309.256C378.629 309.256 377.37 308.936 376.304 308.296C375.237 307.635 374.405 306.707 373.808 305.512C373.232 304.296 372.944 302.867 372.944 301.224C372.944 299.603 373.232 298.195 373.808 297C374.405 295.784 375.237 294.845 376.304 294.184C377.37 293.523 378.629 293.192 380.08 293.192C381.552 293.192 382.821 293.523 383.888 294.184C384.954 294.845 385.776 295.784 386.352 297C386.949 298.195 387.248 299.603 387.248 301.224C387.248 302.867 386.949 304.296 386.352 305.512C385.776 306.707 384.954 307.635 383.888 308.296C382.821 308.936 381.552 309.256 380.08 309.256ZM380.08 307.624C381.658 307.624 382.917 307.069 383.856 305.96C384.794 304.829 385.264 303.251 385.264 301.224C385.264 299.197 384.794 297.629 383.856 296.52C382.917 295.411 381.658 294.856 380.08 294.856C378.501 294.856 377.242 295.411 376.304 296.52C375.386 297.629 374.928 299.197 374.928 301.224C374.928 303.251 375.386 304.829 376.304 305.96C377.242 307.069 378.501 307.624 380.08 307.624ZM391.404 309V293.48H393.324V296.264C393.836 295.24 394.572 294.472 395.532 293.96C396.492 293.448 397.558 293.192 398.732 293.192C402.422 293.192 404.268 295.197 404.268 299.208V309H402.316V299.368C402.316 297.832 402.006 296.701 401.388 295.976C400.769 295.251 399.788 294.888 398.444 294.888C396.908 294.888 395.67 295.368 394.732 296.328C393.814 297.267 393.356 298.536 393.356 300.136V309H391.404ZM415.166 309.256C413.438 309.256 412.137 308.787 411.262 307.848C410.409 306.909 409.982 305.565 409.982 303.816V295.048H406.91V293.48H409.982V288.68H411.934V293.48H416.958V295.048H411.934V303.56C411.934 304.861 412.201 305.853 412.734 306.536C413.267 307.219 414.153 307.56 415.39 307.56C415.753 307.56 416.105 307.517 416.446 307.432C416.787 307.347 417.086 307.251 417.342 307.144L417.726 308.68C417.491 308.829 417.118 308.957 416.606 309.064C416.094 309.192 415.614 309.256 415.166 309.256ZM434.812 309.256C432.423 309.256 430.535 308.552 429.148 307.144C427.783 305.715 427.1 303.763 427.1 301.288C427.1 299.688 427.409 298.28 428.028 297.064C428.647 295.848 429.5 294.899 430.588 294.216C431.697 293.533 432.967 293.192 434.396 293.192C436.465 293.192 438.076 293.864 439.228 295.208C440.38 296.552 440.956 298.397 440.956 300.744V301.64H429.02C429.084 303.56 429.607 305.043 430.588 306.088C431.591 307.112 432.977 307.624 434.748 307.624C435.708 307.624 436.604 307.475 437.436 307.176C438.289 306.877 439.121 306.376 439.932 305.672L440.7 307.144C440.017 307.805 439.143 308.328 438.076 308.712C437.009 309.075 435.921 309.256 434.812 309.256ZM434.428 294.76C432.807 294.76 431.537 295.272 430.62 296.296C429.724 297.299 429.201 298.6 429.052 300.2H439.196C439.153 298.493 438.727 297.16 437.916 296.2C437.105 295.24 435.943 294.76 434.428 294.76ZM444.935 309V293.48H446.855V296.264C447.367 295.24 448.103 294.472 449.063 293.96C450.023 293.448 451.09 293.192 452.263 293.192C455.954 293.192 457.799 295.197 457.799 299.208V309H455.847V299.368C455.847 297.832 455.538 296.701 454.919 295.976C454.3 295.251 453.319 294.888 451.975 294.888C450.439 294.888 449.202 295.368 448.263 296.328C447.346 297.267 446.887 298.536 446.887 300.136V309H444.935ZM468.761 309.256C467.353 309.256 466.137 308.936 465.113 308.296C464.089 307.635 463.289 306.707 462.713 305.512C462.159 304.296 461.881 302.867 461.881 301.224C461.881 298.771 462.5 296.819 463.737 295.368C464.975 293.917 466.649 293.192 468.761 293.192C469.999 293.192 471.087 293.48 472.025 294.056C472.985 294.611 473.7 295.379 474.169 296.36V286.44H476.121V309H474.201V306.056C473.732 307.059 473.017 307.848 472.057 308.424C471.119 308.979 470.02 309.256 468.761 309.256ZM469.017 307.624C470.596 307.624 471.855 307.069 472.793 305.96C473.732 304.829 474.201 303.251 474.201 301.224C474.201 299.197 473.732 297.629 472.793 296.52C471.855 295.411 470.596 294.856 469.017 294.856C467.439 294.856 466.18 295.411 465.241 296.52C464.324 297.629 463.865 299.197 463.865 301.224C463.865 303.251 464.324 304.829 465.241 305.96C466.18 307.069 467.439 307.624 469.017 307.624ZM495.199 309.256C493.791 309.256 492.575 308.936 491.551 308.296C490.527 307.635 489.727 306.707 489.151 305.512C488.596 304.296 488.319 302.867 488.319 301.224C488.319 298.771 488.937 296.819 490.175 295.368C491.412 293.917 493.087 293.192 495.199 293.192C496.436 293.192 497.524 293.48 498.463 294.056C499.423 294.611 500.137 295.379 500.607 296.36V286.44H502.559V309H500.639V306.056C500.169 307.059 499.455 307.848 498.495 308.424C497.556 308.979 496.457 309.256 495.199 309.256ZM495.455 307.624C497.033 307.624 498.292 307.069 499.231 305.96C500.169 304.829 500.639 303.251 500.639 301.224C500.639 299.197 500.169 297.629 499.231 296.52C498.292 295.411 497.033 294.856 495.455 294.856C493.876 294.856 492.617 295.411 491.679 296.52C490.761 297.629 490.303 299.197 490.303 301.224C490.303 303.251 490.761 304.829 491.679 305.96C492.617 307.069 493.876 307.624 495.455 307.624ZM514.437 309.256C512.048 309.256 510.16 308.552 508.773 307.144C507.408 305.715 506.725 303.763 506.725 301.288C506.725 299.688 507.034 298.28 507.653 297.064C508.272 295.848 509.125 294.899 510.213 294.216C511.322 293.533 512.592 293.192 514.021 293.192C516.09 293.192 517.701 293.864 518.853 295.208C520.005 296.552 520.581 298.397 520.581 300.744V301.64H508.645C508.709 303.56 509.232 305.043 510.213 306.088C511.216 307.112 512.602 307.624 514.373 307.624C515.333 307.624 516.229 307.475 517.061 307.176C517.914 306.877 518.746 306.376 519.557 305.672L520.325 307.144C519.642 307.805 518.768 308.328 517.701 308.712C516.634 309.075 515.546 309.256 514.437 309.256ZM514.053 294.76C512.432 294.76 511.162 295.272 510.245 296.296C509.349 297.299 508.826 298.6 508.677 300.2H518.821C518.778 298.493 518.352 297.16 517.541 296.2C516.73 295.24 515.568 294.76 514.053 294.76ZM528.981 309L522.325 293.48H524.501L529.973 306.856L535.541 293.48H537.589L530.933 309H528.981ZM7.616 347.256C6.464 347.256 5.35467 347.085 4.288 346.744C3.24267 346.403 2.37867 345.912 1.696 345.272L2.4 343.832C3.18933 344.472 4.032 344.941 4.928 345.24C5.824 345.517 6.74133 345.656 7.68 345.656C9.00267 345.656 9.99467 345.421 10.656 344.952C11.3387 344.461 11.68 343.789 11.68 342.936C11.68 342.275 11.456 341.752 11.008 341.368C10.56 340.984 9.856 340.675 8.896 340.44L6.112 339.8C3.488 339.203 2.176 337.848 2.176 335.736C2.176 334.371 2.70933 333.272 3.776 332.44C4.84267 331.608 6.25067 331.192 8 331.192C9.06667 331.192 10.0693 331.373 11.008 331.736C11.9467 332.077 12.7147 332.579 13.312 333.24L12.544 334.68C11.9253 334.061 11.2213 333.603 10.432 333.304C9.64267 332.984 8.82133 332.824 7.968 332.824C6.73067 332.824 5.77067 333.08 5.088 333.592C4.42667 334.104 4.096 334.797 4.096 335.672C4.096 336.333 4.29867 336.867 4.704 337.272C5.10933 337.677 5.77067 337.987 6.688 338.2L9.472 338.84C10.8587 339.16 11.8933 339.64 12.576 340.28C13.2587 340.899 13.6 341.741 13.6 342.808C13.6 344.195 13.056 345.283 11.968 346.072C10.88 346.861 9.42933 347.256 7.616 347.256ZM17.8413 347V324.44H19.7933V338.52H19.8573L27.5053 331.48H30.0973L21.9373 338.968L30.8653 347H28.2733L19.8573 339.544H19.7933V347H17.8413ZM33.0213 327.384V324.92H35.6453V327.384H33.0213ZM33.3413 347V331.48H35.2933V347H33.3413ZM44.947 347.256C43.4963 347.256 42.3763 346.819 41.587 345.944C40.819 345.048 40.435 343.768 40.435 342.104V324.44H42.387V341.88C42.387 344.333 43.347 345.56 45.267 345.56C45.8003 345.56 46.291 345.496 46.739 345.368L46.675 347.064C46.0563 347.192 45.4803 347.256 44.947 347.256ZM54.072 347.256C52.6213 347.256 51.5013 346.819 50.712 345.944C49.944 345.048 49.56 343.768 49.56 342.104V324.44H51.512V341.88C51.512 344.333 52.472 345.56 54.392 345.56C54.9253 345.56 55.416 345.496 55.864 345.368L55.8 347.064C55.1813 347.192 54.6053 347.256 54.072 347.256ZM63.5848 347.256C62.4328 347.256 61.3234 347.085 60.2568 346.744C59.2114 346.403 58.3474 345.912 57.6648 345.272L58.3688 343.832C59.1581 344.472 60.0008 344.941 60.8968 345.24C61.7928 345.517 62.7101 345.656 63.6488 345.656C64.9714 345.656 65.9634 345.421 66.6248 344.952C67.3074 344.461 67.6488 343.789 67.6488 342.936C67.6488 342.275 67.4248 341.752 66.9768 341.368C66.5288 340.984 65.8248 340.675 64.8648 340.44L62.0808 339.8C59.4568 339.203 58.1448 337.848 58.1448 335.736C58.1448 334.371 58.6781 333.272 59.7448 332.44C60.8114 331.608 62.2194 331.192 63.9688 331.192C65.0354 331.192 66.0381 331.373 66.9768 331.736C67.9154 332.077 68.6834 332.579 69.2808 333.24L68.5128 334.68C67.8941 334.061 67.1901 333.603 66.4008 333.304C65.6114 332.984 64.7901 332.824 63.9368 332.824C62.6994 332.824 61.7394 333.08 61.0568 333.592C60.3954 334.104 60.0648 334.797 60.0648 335.672C60.0648 336.333 60.2674 336.867 60.6727 337.272C61.0781 337.677 61.7394 337.987 62.6568 338.2L65.4408 338.84C66.8274 339.16 67.8621 339.64 68.5448 340.28C69.2274 340.899 69.5688 341.741 69.5688 342.808C69.5688 344.195 69.0248 345.283 67.9368 346.072C66.8488 346.861 65.3981 347.256 63.5848 347.256ZM81.5213 327.384V324.92H84.1453V327.384H81.5213ZM81.8413 347V331.48H83.7933V347H81.8413ZM88.935 347V331.48H90.855V334.264C91.367 333.24 92.103 332.472 93.063 331.96C94.023 331.448 95.0897 331.192 96.263 331.192C99.9537 331.192 101.799 333.197 101.799 337.208V347H99.847V337.368C99.847 335.832 99.5377 334.701 98.919 333.976C98.3003 333.251 97.319 332.888 95.975 332.888C94.439 332.888 93.2017 333.368 92.263 334.328C91.3457 335.267 90.887 336.536 90.887 338.136V347H88.935ZM112.761 347.256C111.353 347.256 110.137 346.936 109.113 346.296C108.089 345.635 107.289 344.707 106.713 343.512C106.159 342.296 105.881 340.867 105.881 339.224C105.881 336.771 106.5 334.819 107.737 333.368C108.975 331.917 110.649 331.192 112.761 331.192C113.999 331.192 115.087 331.48 116.025 332.056C116.985 332.611 117.7 333.379 118.169 334.36V324.44H120.121V347H118.201V344.056C117.732 345.059 117.017 345.848 116.057 346.424C115.119 346.979 114.02 347.256 112.761 347.256ZM113.017 345.624C114.596 345.624 115.855 345.069 116.793 343.96C117.732 342.829 118.201 341.251 118.201 339.224C118.201 337.197 117.732 335.629 116.793 334.52C115.855 333.411 114.596 332.856 113.017 332.856C111.439 332.856 110.18 333.411 109.241 334.52C108.324 335.629 107.865 337.197 107.865 339.224C107.865 341.251 108.324 342.829 109.241 343.96C110.18 345.069 111.439 345.624 113.017 345.624ZM132 347.256C129.61 347.256 127.722 346.552 126.336 345.144C124.97 343.715 124.288 341.763 124.288 339.288C124.288 337.688 124.597 336.28 125.216 335.064C125.834 333.848 126.688 332.899 127.776 332.216C128.885 331.533 130.154 331.192 131.584 331.192C133.653 331.192 135.264 331.864 136.416 333.208C137.568 334.552 138.144 336.397 138.144 338.744V339.64H126.208C126.272 341.56 126.794 343.043 127.776 344.088C128.778 345.112 130.165 345.624 131.936 345.624C132.896 345.624 133.792 345.475 134.624 345.176C135.477 344.877 136.309 344.376 137.12 343.672L137.888 345.144C137.205 345.805 136.33 346.328 135.264 346.712C134.197 347.075 133.109 347.256 132 347.256ZM131.616 332.76C129.994 332.76 128.725 333.272 127.808 334.296C126.912 335.299 126.389 336.6 126.24 338.2H136.384C136.341 336.493 135.914 335.16 135.104 334.2C134.293 333.24 133.13 332.76 131.616 332.76ZM142.123 352.76V331.48H144.075V334.392C144.544 333.411 145.248 332.632 146.187 332.056C147.147 331.48 148.256 331.192 149.515 331.192C150.901 331.192 152.107 331.523 153.131 332.184C154.176 332.845 154.976 333.773 155.531 334.968C156.107 336.163 156.395 337.581 156.395 339.224C156.395 340.867 156.107 342.296 155.531 343.512C154.976 344.707 154.176 345.635 153.131 346.296C152.107 346.936 150.901 347.256 149.515 347.256C148.256 347.256 147.147 346.979 146.187 346.424C145.248 345.869 144.544 345.101 144.075 344.12V352.76H142.123ZM149.227 345.624C150.805 345.624 152.064 345.069 153.003 343.96C153.941 342.829 154.411 341.251 154.411 339.224C154.411 337.197 153.941 335.629 153.003 334.52C152.064 333.411 150.805 332.856 149.227 332.856C147.648 332.856 146.389 333.411 145.451 334.52C144.512 335.629 144.043 337.197 144.043 339.224C144.043 341.251 144.512 342.829 145.451 343.96C146.389 345.069 147.648 345.624 149.227 345.624ZM167.281 347.256C164.891 347.256 163.003 346.552 161.617 345.144C160.251 343.715 159.569 341.763 159.569 339.288C159.569 337.688 159.878 336.28 160.497 335.064C161.115 333.848 161.969 332.899 163.057 332.216C164.166 331.533 165.435 331.192 166.865 331.192C168.934 331.192 170.545 331.864 171.697 333.208C172.849 334.552 173.425 336.397 173.425 338.744V339.64H161.489C161.553 341.56 162.075 343.043 163.057 344.088C164.059 345.112 165.446 345.624 167.217 345.624C168.177 345.624 169.073 345.475 169.905 345.176C170.758 344.877 171.59 344.376 172.401 343.672L173.169 345.144C172.486 345.805 171.611 346.328 170.545 346.712C169.478 347.075 168.39 347.256 167.281 347.256ZM166.897 332.76C165.275 332.76 164.006 333.272 163.089 334.296C162.193 335.299 161.67 336.6 161.521 338.2H171.665C171.622 336.493 171.195 335.16 170.385 334.2C169.574 333.24 168.411 332.76 166.897 332.76ZM177.404 347V331.48H179.324V334.264C179.836 333.24 180.572 332.472 181.532 331.96C182.492 331.448 183.558 331.192 184.732 331.192C188.422 331.192 190.268 333.197 190.268 337.208V347H188.316V337.368C188.316 335.832 188.006 334.701 187.388 333.976C186.769 333.251 185.788 332.888 184.444 332.888C182.908 332.888 181.67 333.368 180.732 334.328C179.814 335.267 179.356 336.536 179.356 338.136V347H177.404ZM201.23 347.256C199.822 347.256 198.606 346.936 197.582 346.296C196.558 345.635 195.758 344.707 195.182 343.512C194.627 342.296 194.35 340.867 194.35 339.224C194.35 336.771 194.969 334.819 196.206 333.368C197.443 331.917 199.118 331.192 201.23 331.192C202.467 331.192 203.555 331.48 204.494 332.056C205.454 332.611 206.169 333.379 206.638 334.36V324.44H208.59V347H206.67V344.056C206.201 345.059 205.486 345.848 204.526 346.424C203.587 346.979 202.489 347.256 201.23 347.256ZM201.486 345.624C203.065 345.624 204.323 345.069 205.262 343.96C206.201 342.829 206.67 341.251 206.67 339.224C206.67 337.197 206.201 335.629 205.262 334.52C204.323 333.411 203.065 332.856 201.486 332.856C199.907 332.856 198.649 333.411 197.71 334.52C196.793 335.629 196.334 337.197 196.334 339.224C196.334 341.251 196.793 342.829 197.71 343.96C198.649 345.069 199.907 345.624 201.486 345.624ZM220.468 347.256C218.079 347.256 216.191 346.552 214.804 345.144C213.439 343.715 212.756 341.763 212.756 339.288C212.756 337.688 213.066 336.28 213.684 335.064C214.303 333.848 215.156 332.899 216.244 332.216C217.354 331.533 218.623 331.192 220.052 331.192C222.122 331.192 223.732 331.864 224.884 333.208C226.036 334.552 226.612 336.397 226.612 338.744V339.64H214.676C214.74 341.56 215.263 343.043 216.244 344.088C217.247 345.112 218.634 345.624 220.404 345.624C221.364 345.624 222.26 345.475 223.092 345.176C223.946 344.877 224.778 344.376 225.588 343.672L226.356 345.144C225.674 345.805 224.799 346.328 223.732 346.712C222.666 347.075 221.578 347.256 220.468 347.256ZM220.084 332.76C218.463 332.76 217.194 333.272 216.276 334.296C215.38 335.299 214.858 336.6 214.708 338.2H224.852C224.81 336.493 224.383 335.16 223.572 334.2C222.762 333.24 221.599 332.76 220.084 332.76ZM230.591 347V331.48H232.511V334.264C233.023 333.24 233.759 332.472 234.719 331.96C235.679 331.448 236.746 331.192 237.919 331.192C241.61 331.192 243.455 333.197 243.455 337.208V347H241.503V337.368C241.503 335.832 241.194 334.701 240.575 333.976C239.957 333.251 238.975 332.888 237.631 332.888C236.095 332.888 234.858 333.368 233.919 334.328C233.002 335.267 232.543 336.536 232.543 338.136V347H230.591ZM254.354 347.256C252.626 347.256 251.324 346.787 250.45 345.848C249.596 344.909 249.17 343.565 249.17 341.816V333.048H246.098V331.48H249.17V326.68H251.122V331.48H256.146V333.048H251.122V341.56C251.122 342.861 251.388 343.853 251.922 344.536C252.455 345.219 253.34 345.56 254.578 345.56C254.94 345.56 255.292 345.517 255.634 345.432C255.975 345.347 256.274 345.251 256.53 345.144L256.914 346.68C256.679 346.829 256.306 346.957 255.794 347.064C255.282 347.192 254.802 347.256 254.354 347.256ZM263.728 347.256C262.278 347.256 261.158 346.819 260.368 345.944C259.6 345.048 259.216 343.768 259.216 342.104V324.44H261.168V341.88C261.168 344.333 262.128 345.56 264.048 345.56C264.582 345.56 265.072 345.496 265.52 345.368L265.456 347.064C264.838 347.192 264.262 347.256 263.728 347.256ZM269.982 352.76L272.542 346.936L265.95 331.48H268.126L273.598 344.856L279.134 331.48H281.246L272.094 352.76H269.982ZM293.046 347V333.048H289.974V331.48H293.046V330.712C293.046 326.765 295.041 324.675 299.03 324.44L300.15 324.344L300.31 325.944L298.838 326.04C297.515 326.125 296.545 326.541 295.926 327.288C295.307 328.035 294.998 329.123 294.998 330.552V331.48H299.574V333.048H294.998V347H293.046ZM308.236 347.256C306.785 347.256 305.527 346.936 304.46 346.296C303.393 345.635 302.561 344.707 301.964 343.512C301.388 342.296 301.1 340.867 301.1 339.224C301.1 337.603 301.388 336.195 301.964 335C302.561 333.784 303.393 332.845 304.46 332.184C305.527 331.523 306.785 331.192 308.236 331.192C309.708 331.192 310.977 331.523 312.044 332.184C313.111 332.845 313.932 333.784 314.508 335C315.105 336.195 315.404 337.603 315.404 339.224C315.404 340.867 315.105 342.296 314.508 343.512C313.932 344.707 313.111 345.635 312.044 346.296C310.977 346.936 309.708 347.256 308.236 347.256ZM308.236 345.624C309.815 345.624 311.073 345.069 312.012 343.96C312.951 342.829 313.42 341.251 313.42 339.224C313.42 337.197 312.951 335.629 312.012 334.52C311.073 333.411 309.815 332.856 308.236 332.856C306.657 332.856 305.399 333.411 304.46 334.52C303.543 335.629 303.084 337.197 303.084 339.224C303.084 341.251 303.543 342.829 304.46 343.96C305.399 345.069 306.657 345.624 308.236 345.624ZM319.56 347V331.48H321.48V334.296C321.928 333.315 322.579 332.568 323.432 332.056C324.285 331.544 325.373 331.245 326.696 331.16L327.496 331.096L327.688 332.792L326.312 332.952C324.797 333.08 323.624 333.581 322.792 334.456C321.96 335.309 321.544 336.461 321.544 337.912V347H319.56ZM344.385 347.256C342.657 347.256 341.355 346.787 340.481 345.848C339.627 344.909 339.201 343.565 339.201 341.816V333.048H336.129V331.48H339.201V326.68H341.153V331.48H346.177V333.048H341.153V341.56C341.153 342.861 341.419 343.853 341.953 344.536C342.486 345.219 343.371 345.56 344.609 345.56C344.971 345.56 345.323 345.517 345.665 345.432C346.006 345.347 346.305 345.251 346.561 345.144L346.945 346.68C346.71 346.829 346.337 346.957 345.825 347.064C345.313 347.192 344.833 347.256 344.385 347.256ZM349.248 347V324.44H351.2V334.168C351.733 333.187 352.469 332.451 353.408 331.96C354.368 331.448 355.424 331.192 356.576 331.192C360.266 331.192 362.112 333.197 362.112 337.208V347H360.16V337.368C360.16 335.832 359.85 334.701 359.232 333.976C358.613 333.251 357.632 332.888 356.288 332.888C354.752 332.888 353.514 333.368 352.576 334.328C351.658 335.267 351.2 336.536 351.2 338.136V347H349.248ZM373.906 347.256C371.516 347.256 369.628 346.552 368.242 345.144C366.876 343.715 366.194 341.763 366.194 339.288C366.194 337.688 366.503 336.28 367.122 335.064C367.74 333.848 368.594 332.899 369.682 332.216C370.791 331.533 372.06 331.192 373.49 331.192C375.559 331.192 377.17 331.864 378.322 333.208C379.474 334.552 380.05 336.397 380.05 338.744V339.64H368.114C368.178 341.56 368.7 343.043 369.682 344.088C370.684 345.112 372.071 345.624 373.842 345.624C374.802 345.624 375.698 345.475 376.53 345.176C377.383 344.877 378.215 344.376 379.026 343.672L379.794 345.144C379.111 345.805 378.236 346.328 377.17 346.712C376.103 347.075 375.015 347.256 373.906 347.256ZM373.522 332.76C371.9 332.76 370.631 333.272 369.714 334.296C368.818 335.299 368.295 336.6 368.146 338.2H378.29C378.247 336.493 377.82 335.16 377.01 334.2C376.199 333.24 375.036 332.76 373.522 332.76ZM396.572 347.256C395.121 347.256 394.001 346.819 393.212 345.944C392.444 345.048 392.06 343.768 392.06 342.104V324.44H394.012V341.88C394.012 344.333 394.972 345.56 396.892 345.56C397.425 345.56 397.916 345.496 398.364 345.368L398.3 347.064C397.681 347.192 397.105 347.256 396.572 347.256ZM405.985 347.256C404.94 347.256 404.001 347.053 403.169 346.648C402.358 346.243 401.708 345.688 401.217 344.984C400.748 344.28 400.513 343.491 400.513 342.616C400.513 341.464 400.801 340.568 401.377 339.928C401.953 339.267 402.924 338.797 404.289 338.52C405.654 338.243 407.532 338.104 409.921 338.104H410.913V336.952C410.913 335.523 410.625 334.488 410.049 333.848C409.473 333.187 408.556 332.856 407.297 332.856C406.358 332.856 405.452 332.995 404.577 333.272C403.724 333.549 402.838 333.987 401.921 334.584L401.153 333.08C401.964 332.504 402.924 332.045 404.033 331.704C405.142 331.363 406.22 331.192 407.265 331.192C409.142 331.192 410.529 331.672 411.425 332.632C412.342 333.592 412.801 335.064 412.801 337.048V347H410.945V344.216C410.518 345.176 409.868 345.923 408.993 346.456C408.14 346.989 407.137 347.256 405.985 347.256ZM406.241 345.688C407.158 345.688 407.958 345.475 408.641 345.048C409.345 344.6 409.9 343.992 410.305 343.224C410.71 342.456 410.913 341.581 410.913 340.6V339.544H409.953C408.033 339.544 406.529 339.629 405.441 339.8C404.374 339.971 403.628 340.269 403.201 340.696C402.774 341.123 402.561 341.709 402.561 342.456C402.561 343.416 402.892 344.195 403.553 344.792C404.214 345.389 405.11 345.688 406.241 345.688ZM422.96 347.256C421.808 347.256 420.698 347.085 419.632 346.744C418.586 346.403 417.722 345.912 417.04 345.272L417.744 343.832C418.533 344.472 419.376 344.941 420.272 345.24C421.168 345.517 422.085 345.656 423.024 345.656C424.346 345.656 425.338 345.421 426 344.952C426.682 344.461 427.024 343.789 427.024 342.936C427.024 342.275 426.8 341.752 426.352 341.368C425.904 340.984 425.2 340.675 424.24 340.44L421.456 339.8C418.832 339.203 417.52 337.848 417.52 335.736C417.52 334.371 418.053 333.272 419.12 332.44C420.186 331.608 421.594 331.192 423.344 331.192C424.41 331.192 425.413 331.373 426.352 331.736C427.29 332.077 428.058 332.579 428.656 333.24L427.888 334.68C427.269 334.061 426.565 333.603 425.776 333.304C424.986 332.984 424.165 332.824 423.312 332.824C422.074 332.824 421.114 333.08 420.432 333.592C419.77 334.104 419.44 334.797 419.44 335.672C419.44 336.333 419.642 336.867 420.048 337.272C420.453 337.677 421.114 337.987 422.032 338.2L424.816 338.84C426.202 339.16 427.237 339.64 427.92 340.28C428.602 340.899 428.944 341.741 428.944 342.808C428.944 344.195 428.4 345.283 427.312 346.072C426.224 346.861 424.773 347.256 422.96 347.256ZM438.885 347.256C437.157 347.256 435.855 346.787 434.981 345.848C434.127 344.909 433.701 343.565 433.701 341.816V333.048H430.629V331.48H433.701V326.68H435.653V331.48H440.677V333.048H435.653V341.56C435.653 342.861 435.919 343.853 436.453 344.536C436.986 345.219 437.871 345.56 439.109 345.56C439.471 345.56 439.823 345.517 440.165 345.432C440.506 345.347 440.805 345.251 441.061 345.144L441.445 346.68C441.21 346.829 440.837 346.957 440.325 347.064C439.813 347.192 439.333 347.256 438.885 347.256ZM459.618 339.32V337.656H468.322V339.32H459.618ZM481.279 347V331.48H483.199V334.264C483.711 333.24 484.447 332.472 485.407 331.96C486.367 331.448 487.433 331.192 488.607 331.192C492.297 331.192 494.143 333.197 494.143 337.208V347H492.191V337.368C492.191 335.832 491.881 334.701 491.263 333.976C490.644 333.251 489.663 332.888 488.319 332.888C486.783 332.888 485.545 333.368 484.607 334.328C483.689 335.267 483.231 336.536 483.231 338.136V347H481.279ZM505.937 347.256C503.548 347.256 501.66 346.552 500.273 345.144C498.908 343.715 498.225 341.763 498.225 339.288C498.225 337.688 498.534 336.28 499.153 335.064C499.772 333.848 500.625 332.899 501.713 332.216C502.822 331.533 504.092 331.192 505.521 331.192C507.59 331.192 509.201 331.864 510.353 333.208C511.505 334.552 512.081 336.397 512.081 338.744V339.64H500.145C500.209 341.56 500.732 343.043 501.713 344.088C502.716 345.112 504.102 345.624 505.873 345.624C506.833 345.624 507.729 345.475 508.561 345.176C509.414 344.877 510.246 344.376 511.057 343.672L511.825 345.144C511.142 345.805 510.268 346.328 509.201 346.712C508.134 347.075 507.046 347.256 505.937 347.256ZM505.553 332.76C503.932 332.76 502.662 333.272 501.745 334.296C500.849 335.299 500.326 336.6 500.177 338.2H510.321C510.278 336.493 509.852 335.16 509.041 334.2C508.23 333.24 507.068 332.76 505.553 332.76ZM522.812 347.256C520.423 347.256 518.535 346.552 517.148 345.144C515.783 343.715 515.1 341.763 515.1 339.288C515.1 337.688 515.409 336.28 516.028 335.064C516.647 333.848 517.5 332.899 518.588 332.216C519.697 331.533 520.967 331.192 522.396 331.192C524.465 331.192 526.076 331.864 527.228 333.208C528.38 334.552 528.956 336.397 528.956 338.744V339.64H517.02C517.084 341.56 517.607 343.043 518.588 344.088C519.591 345.112 520.977 345.624 522.748 345.624C523.708 345.624 524.604 345.475 525.436 345.176C526.289 344.877 527.121 344.376 527.932 343.672L528.7 345.144C528.017 345.805 527.143 346.328 526.076 346.712C525.009 347.075 523.921 347.256 522.812 347.256ZM522.428 332.76C520.807 332.76 519.537 333.272 518.62 334.296C517.724 335.299 517.201 336.6 517.052 338.2H527.196C527.153 336.493 526.727 335.16 525.916 334.2C525.105 333.24 523.943 332.76 522.428 332.76ZM538.855 347.256C537.447 347.256 536.231 346.936 535.207 346.296C534.183 345.635 533.383 344.707 532.807 343.512C532.252 342.296 531.975 340.867 531.975 339.224C531.975 336.771 532.594 334.819 533.831 333.368C535.068 331.917 536.743 331.192 538.855 331.192C540.092 331.192 541.18 331.48 542.119 332.056C543.079 332.611 543.794 333.379 544.263 334.36V324.44H546.215V347H544.295V344.056C543.826 345.059 543.111 345.848 542.151 346.424C541.212 346.979 540.114 347.256 538.855 347.256ZM539.111 345.624C540.69 345.624 541.948 345.069 542.887 343.96C543.826 342.829 544.295 341.251 544.295 339.224C544.295 337.197 543.826 335.629 542.887 334.52C541.948 333.411 540.69 332.856 539.111 332.856C537.532 332.856 536.274 333.411 535.335 334.52C534.418 335.629 533.959 337.197 533.959 339.224C533.959 341.251 534.418 342.829 535.335 343.96C536.274 345.069 537.532 345.624 539.111 345.624ZM564.173 347.256C563.127 347.256 562.189 347.053 561.357 346.648C560.546 346.243 559.895 345.688 559.405 344.984C558.935 344.28 558.701 343.491 558.701 342.616C558.701 341.464 558.989 340.568 559.565 339.928C560.141 339.267 561.111 338.797 562.477 338.52C563.842 338.243 565.719 338.104 568.109 338.104H569.101V336.952C569.101 335.523 568.813 334.488 568.237 333.848C567.661 333.187 566.743 332.856 565.485 332.856C564.546 332.856 563.639 332.995 562.765 333.272C561.911 333.549 561.026 333.987 560.109 334.584L559.341 333.08C560.151 332.504 561.111 332.045 562.221 331.704C563.33 331.363 564.407 331.192 565.453 331.192C567.33 331.192 568.717 331.672 569.613 332.632C570.53 333.592 570.989 335.064 570.989 337.048V347H569.133V344.216C568.706 345.176 568.055 345.923 567.181 346.456C566.327 346.989 565.325 347.256 564.173 347.256ZM564.429 345.688C565.346 345.688 566.146 345.475 566.829 345.048C567.533 344.6 568.087 343.992 568.493 343.224C568.898 342.456 569.101 341.581 569.101 340.6V339.544H568.141C566.22 339.544 564.717 339.629 563.629 339.8C562.562 339.971 561.815 340.269 561.389 340.696C560.962 341.123 560.749 341.709 560.749 342.456C560.749 343.416 561.079 344.195 561.741 344.792C562.402 345.389 563.298 345.688 564.429 345.688ZM9.952 385.256C8.69333 385.256 7.584 384.979 6.624 384.424C5.68533 383.848 4.98133 383.059 4.512 382.056V385H2.56V362.44H4.512V372.36C4.98133 371.379 5.68533 370.611 6.624 370.056C7.584 369.48 8.69333 369.192 9.952 369.192C12.0427 369.192 13.7067 369.917 14.944 371.368C16.2027 372.819 16.832 374.771 16.832 377.224C16.832 378.867 16.544 380.296 15.968 381.512C15.4133 382.707 14.6133 383.635 13.568 384.296C12.544 384.936 11.3387 385.256 9.952 385.256ZM9.664 383.624C11.2427 383.624 12.5013 383.069 13.44 381.96C14.3787 380.829 14.848 379.251 14.848 377.224C14.848 375.197 14.3787 373.629 13.44 372.52C12.5013 371.411 11.2427 370.856 9.664 370.856C8.08533 370.856 6.82667 371.411 5.888 372.52C4.94933 373.629 4.48 375.197 4.48 377.224C4.48 379.251 4.94933 380.829 5.888 381.96C6.82667 383.069 8.08533 383.624 9.664 383.624ZM27.7183 385.256C25.3289 385.256 23.4409 384.552 22.0543 383.144C20.6889 381.715 20.0063 379.763 20.0063 377.288C20.0063 375.688 20.3156 374.28 20.9343 373.064C21.5529 371.848 22.4063 370.899 23.4943 370.216C24.6036 369.533 25.8729 369.192 27.3023 369.192C29.3716 369.192 30.9823 369.864 32.1343 371.208C33.2863 372.552 33.8623 374.397 33.8623 376.744V377.64H21.9263C21.9903 379.56 22.5129 381.043 23.4943 382.088C24.4969 383.112 25.8836 383.624 27.6543 383.624C28.6143 383.624 29.5103 383.475 30.3423 383.176C31.1956 382.877 32.0276 382.376 32.8383 381.672L33.6063 383.144C32.9236 383.805 32.0489 384.328 30.9823 384.712C29.9156 385.075 28.8276 385.256 27.7183 385.256ZM27.3343 370.76C25.7129 370.76 24.4436 371.272 23.5263 372.296C22.6303 373.299 22.1076 374.6 21.9583 376.2H32.1023C32.0596 374.493 31.6329 373.16 30.8223 372.2C30.0116 371.24 28.8489 370.76 27.3343 370.76ZM43.6973 385.256C41.9693 385.256 40.6679 384.787 39.7933 383.848C38.9399 382.909 38.5133 381.565 38.5133 379.816V371.048H35.4413V369.48H38.5133V364.68H40.4653V369.48H45.4893V371.048H40.4653V379.56C40.4653 380.861 40.7319 381.853 41.2653 382.536C41.7986 383.219 42.6839 383.56 43.9213 383.56C44.2839 383.56 44.6359 383.517 44.9773 383.432C45.3186 383.347 45.6173 383.251 45.8733 383.144L46.2573 384.68C46.0226 384.829 45.6493 384.957 45.1373 385.064C44.6253 385.192 44.1453 385.256 43.6973 385.256ZM54.2285 385.256C52.5005 385.256 51.1992 384.787 50.3245 383.848C49.4712 382.909 49.0445 381.565 49.0445 379.816V371.048H45.9725V369.48H49.0445V364.68H50.9965V369.48H56.0205V371.048H50.9965V379.56C50.9965 380.861 51.2632 381.853 51.7965 382.536C52.3298 383.219 53.2152 383.56 54.4525 383.56C54.8152 383.56 55.1672 383.517 55.5085 383.432C55.8498 383.347 56.1485 383.251 56.4045 383.144L56.7885 384.68C56.5538 384.829 56.1805 384.957 55.6685 385.064C55.1565 385.192 54.6765 385.256 54.2285 385.256ZM65.687 385.256C63.2977 385.256 61.4097 384.552 60.023 383.144C58.6577 381.715 57.975 379.763 57.975 377.288C57.975 375.688 58.2843 374.28 58.903 373.064C59.5217 371.848 60.375 370.899 61.463 370.216C62.5723 369.533 63.8417 369.192 65.271 369.192C67.3403 369.192 68.951 369.864 70.103 371.208C71.255 372.552 71.831 374.397 71.831 376.744V377.64H59.895C59.959 379.56 60.4817 381.043 61.463 382.088C62.4657 383.112 63.8523 383.624 65.623 383.624C66.583 383.624 67.479 383.475 68.311 383.176C69.1643 382.877 69.9963 382.376 70.807 381.672L71.575 383.144C70.8923 383.805 70.0177 384.328 68.951 384.712C67.8843 385.075 66.7963 385.256 65.687 385.256ZM65.303 370.76C63.6817 370.76 62.4123 371.272 61.495 372.296C60.599 373.299 60.0763 374.6 59.927 376.2H70.071C70.0283 374.493 69.6017 373.16 68.791 372.2C67.9803 371.24 66.8177 370.76 65.303 370.76ZM75.81 385V369.48H77.73V372.296C78.178 371.315 78.8287 370.568 79.682 370.056C80.5353 369.544 81.6233 369.245 82.946 369.16L83.746 369.096L83.938 370.792L82.562 370.952C81.0473 371.08 79.874 371.581 79.042 372.456C78.21 373.309 77.794 374.461 77.794 375.912V385H75.81ZM100.699 385.256C99.2908 385.256 98.0748 384.936 97.0508 384.296C96.0268 383.635 95.2268 382.707 94.6508 381.512C94.0961 380.296 93.8188 378.867 93.8188 377.224C93.8188 374.771 94.4374 372.819 95.6748 371.368C96.9121 369.917 98.5868 369.192 100.699 369.192C101.936 369.192 103.024 369.48 103.963 370.056C104.923 370.611 105.637 371.379 106.107 372.36V362.44H108.059V385H106.139V382.056C105.669 383.059 104.955 383.848 103.995 384.424C103.056 384.979 101.957 385.256 100.699 385.256ZM100.955 383.624C102.533 383.624 103.792 383.069 104.731 381.96C105.669 380.829 106.139 379.251 106.139 377.224C106.139 375.197 105.669 373.629 104.731 372.52C103.792 371.411 102.533 370.856 100.955 370.856C99.3761 370.856 98.1174 371.411 97.1788 372.52C96.2614 373.629 95.8028 375.197 95.8028 377.224C95.8028 379.251 96.2614 380.829 97.1788 381.96C98.1174 383.069 99.3761 383.624 100.955 383.624ZM119.937 385.256C117.548 385.256 115.66 384.552 114.273 383.144C112.908 381.715 112.225 379.763 112.225 377.288C112.225 375.688 112.534 374.28 113.153 373.064C113.772 371.848 114.625 370.899 115.713 370.216C116.822 369.533 118.092 369.192 119.521 369.192C121.59 369.192 123.201 369.864 124.353 371.208C125.505 372.552 126.081 374.397 126.081 376.744V377.64H114.145C114.209 379.56 114.732 381.043 115.713 382.088C116.716 383.112 118.102 383.624 119.873 383.624C120.833 383.624 121.729 383.475 122.561 383.176C123.414 382.877 124.246 382.376 125.057 381.672L125.825 383.144C125.142 383.805 124.268 384.328 123.201 384.712C122.134 385.075 121.046 385.256 119.937 385.256ZM119.553 370.76C117.932 370.76 116.662 371.272 115.745 372.296C114.849 373.299 114.326 374.6 114.177 376.2H124.321C124.278 374.493 123.852 373.16 123.041 372.2C122.23 371.24 121.068 370.76 119.553 370.76ZM135.116 385.256C133.964 385.256 132.855 385.085 131.788 384.744C130.743 384.403 129.879 383.912 129.196 383.272L129.9 381.832C130.689 382.472 131.532 382.941 132.428 383.24C133.324 383.517 134.241 383.656 135.18 383.656C136.503 383.656 137.495 383.421 138.156 382.952C138.839 382.461 139.18 381.789 139.18 380.936C139.18 380.275 138.956 379.752 138.508 379.368C138.06 378.984 137.356 378.675 136.396 378.44L133.612 377.8C130.988 377.203 129.676 375.848 129.676 373.736C129.676 372.371 130.209 371.272 131.276 370.44C132.343 369.608 133.751 369.192 135.5 369.192C136.567 369.192 137.569 369.373 138.508 369.736C139.447 370.077 140.215 370.579 140.812 371.24L140.044 372.68C139.425 372.061 138.721 371.603 137.932 371.304C137.143 370.984 136.321 370.824 135.468 370.824C134.231 370.824 133.271 371.08 132.588 371.592C131.927 372.104 131.596 372.797 131.596 373.672C131.596 374.333 131.799 374.867 132.204 375.272C132.609 375.677 133.271 375.987 134.188 376.2L136.972 376.84C138.359 377.16 139.393 377.64 140.076 378.28C140.759 378.899 141.1 379.741 141.1 380.808C141.1 382.195 140.556 383.283 139.468 384.072C138.38 384.861 136.929 385.256 135.116 385.256ZM151.677 385.256C150.163 385.256 148.861 384.925 147.773 384.264C146.685 383.581 145.843 382.632 145.245 381.416C144.669 380.179 144.381 378.749 144.381 377.128C144.381 374.675 145.021 372.744 146.301 371.336C147.603 369.907 149.395 369.192 151.677 369.192C152.616 369.192 153.544 369.373 154.461 369.736C155.379 370.099 156.147 370.6 156.765 371.24L155.997 372.712C155.336 372.072 154.632 371.613 153.885 371.336C153.139 371.037 152.424 370.888 151.741 370.888C150.013 370.888 148.68 371.432 147.741 372.52C146.824 373.608 146.365 375.155 146.365 377.16C146.365 379.165 146.824 380.744 147.741 381.896C148.68 383.027 150.013 383.592 151.741 383.592C152.424 383.592 153.139 383.453 153.885 383.176C154.632 382.877 155.336 382.408 155.997 381.768L156.765 383.24C156.147 383.859 155.368 384.349 154.429 384.712C153.512 385.075 152.595 385.256 151.677 385.256ZM160.029 385V369.48H161.949V372.296C162.397 371.315 163.047 370.568 163.901 370.056C164.754 369.544 165.842 369.245 167.165 369.16L167.965 369.096L168.157 370.792L166.781 370.952C165.266 371.08 164.093 371.581 163.261 372.456C162.429 373.309 162.013 374.461 162.013 375.912V385H160.029ZM170.646 365.384V362.92H173.27V365.384H170.646ZM170.966 385V369.48H172.918V385H170.966ZM178.06 390.76V369.48H180.012V372.392C180.481 371.411 181.185 370.632 182.124 370.056C183.084 369.48 184.193 369.192 185.452 369.192C186.839 369.192 188.044 369.523 189.068 370.184C190.113 370.845 190.913 371.773 191.468 372.968C192.044 374.163 192.332 375.581 192.332 377.224C192.332 378.867 192.044 380.296 191.468 381.512C190.913 382.707 190.113 383.635 189.068 384.296C188.044 384.936 186.839 385.256 185.452 385.256C184.193 385.256 183.084 384.979 182.124 384.424C181.185 383.869 180.481 383.101 180.012 382.12V390.76H178.06ZM185.164 383.624C186.743 383.624 188.001 383.069 188.94 381.96C189.879 380.829 190.348 379.251 190.348 377.224C190.348 375.197 189.879 373.629 188.94 372.52C188.001 371.411 186.743 370.856 185.164 370.856C183.585 370.856 182.327 371.411 181.388 372.52C180.449 373.629 179.98 375.197 179.98 377.224C179.98 379.251 180.449 380.829 181.388 381.96C182.327 383.069 183.585 383.624 185.164 383.624ZM202.166 385.256C200.438 385.256 199.137 384.787 198.262 383.848C197.409 382.909 196.982 381.565 196.982 379.816V371.048H193.91V369.48H196.982V364.68H198.934V369.48H203.958V371.048H198.934V379.56C198.934 380.861 199.201 381.853 199.734 382.536C200.267 383.219 201.153 383.56 202.39 383.56C202.753 383.56 203.105 383.517 203.446 383.432C203.787 383.347 204.086 383.251 204.342 383.144L204.726 384.68C204.491 384.829 204.118 384.957 203.606 385.064C203.094 385.192 202.614 385.256 202.166 385.256ZM206.709 365.384V362.92H209.333V365.384H206.709ZM207.029 385V369.48H208.981V385H207.029ZM220.299 385.256C218.848 385.256 217.589 384.936 216.523 384.296C215.456 383.635 214.624 382.707 214.027 381.512C213.451 380.296 213.163 378.867 213.163 377.224C213.163 375.603 213.451 374.195 214.027 373C214.624 371.784 215.456 370.845 216.523 370.184C217.589 369.523 218.848 369.192 220.299 369.192C221.771 369.192 223.04 369.523 224.107 370.184C225.173 370.845 225.995 371.784 226.571 373C227.168 374.195 227.467 375.603 227.467 377.224C227.467 378.867 227.168 380.296 226.571 381.512C225.995 382.707 225.173 383.635 224.107 384.296C223.04 384.936 221.771 385.256 220.299 385.256ZM220.299 383.624C221.877 383.624 223.136 383.069 224.075 381.96C225.013 380.829 225.483 379.251 225.483 377.224C225.483 375.197 225.013 373.629 224.075 372.52C223.136 371.411 221.877 370.856 220.299 370.856C218.72 370.856 217.461 371.411 216.523 372.52C215.605 373.629 215.147 375.197 215.147 377.224C215.147 379.251 215.605 380.829 216.523 381.96C217.461 383.069 218.72 383.624 220.299 383.624ZM231.623 385V369.48H233.543V372.264C234.055 371.24 234.791 370.472 235.751 369.96C236.711 369.448 237.777 369.192 238.951 369.192C242.641 369.192 244.487 371.197 244.487 375.208V385H242.535V375.368C242.535 373.832 242.225 372.701 241.607 371.976C240.988 371.251 240.007 370.888 238.663 370.888C237.127 370.888 235.889 371.368 234.951 372.328C234.033 373.267 233.575 374.536 233.575 376.136V385H231.623Z" fill="#C4C4C4"/>
</svg>
