<svg width="100%" height="100%" viewBox="0 0 484 335" fill="none" xmlns="http://www.w3.org/2000/svg">
<rect x="1" y="1" width="481.403" height="327.274" fill="#060F1E" stroke="#50044D" stroke-width="2"/>
<rect x="21.0175" y="17.5145" width="431.735" height="254.837" fill="#1E2738"/>
<path d="M37.4667 331.071C37.05 330.8 36.7063 330.373 36.4354 329.789C36.1646 329.227 35.9458 328.623 35.7792 327.977C35.6125 327.331 35.4875 326.696 35.4042 326.071C35.3417 325.446 35.3 324.946 35.2792 324.571C35.1958 322.779 35.1646 320.883 35.1854 318.883C35.2271 316.904 35.4146 314.935 35.7479 312.977C36.0813 310.998 36.5917 309.102 37.2792 307.289C37.9875 305.456 38.9563 303.8 40.1854 302.321C40.8313 301.55 41.4563 300.852 42.0604 300.227C42.6854 299.581 43.3313 299.008 43.9979 298.508C44.6854 298.008 45.4146 297.581 46.1854 297.227C46.9771 296.852 47.8625 296.56 48.8417 296.352C49.7375 296.164 50.4146 296.258 50.8729 296.633C51.3521 297.008 51.6646 297.571 51.8104 298.321C51.9563 299.05 51.9563 299.925 51.8104 300.946C51.6646 301.946 51.4146 302.987 51.0604 304.071C50.7063 305.133 50.2688 306.175 49.7479 307.196C49.2479 308.216 48.7063 309.112 48.1229 309.883C47.5396 310.654 46.9354 311.258 46.3104 311.696C45.6854 312.112 45.0813 312.248 44.4979 312.102C44.4146 311.956 44.5083 311.612 44.7792 311.071C45.05 310.529 45.4042 309.862 45.8417 309.071C46.3 308.279 46.7896 307.404 47.3104 306.446C47.8521 305.466 48.3313 304.477 48.7479 303.477C49.1854 302.477 49.5188 301.498 49.7479 300.539C49.9979 299.581 50.0604 298.727 49.9354 297.977C49.8729 297.643 49.6854 297.446 49.3729 297.383C49.0604 297.321 48.7167 297.331 48.3417 297.414C47.9875 297.498 47.6438 297.602 47.3104 297.727C46.9771 297.852 46.7688 297.935 46.6854 297.977C45.1021 298.664 43.7271 299.664 42.5604 300.977C41.4146 302.268 40.4458 303.758 39.6542 305.446C38.8625 307.112 38.2375 308.893 37.7792 310.789C37.3417 312.685 37.0292 314.55 36.8417 316.383C36.6542 318.237 36.5813 319.998 36.6229 321.664C36.6646 323.352 36.8 324.8 37.0292 326.008C37.2583 327.237 37.55 328.164 37.9042 328.789C38.2583 329.435 38.6542 329.654 39.0917 329.446C39.1333 329.425 39.2167 329.341 39.3417 329.196C39.4875 329.05 39.5813 328.946 39.6229 328.883C39.9146 328.008 40.1542 327.05 40.3417 326.008C40.5292 324.966 40.6646 323.883 40.7479 322.758C40.8521 321.633 40.9146 320.498 40.9354 319.352C40.9563 318.206 40.9563 317.091 40.9354 316.008C40.9146 314.946 40.8729 313.935 40.8104 312.977C40.7688 312.018 40.7271 311.175 40.6854 310.446C40.6229 310.3 40.5708 310.029 40.5292 309.633C40.5083 309.237 40.4875 308.81 40.4667 308.352C40.4667 307.893 40.4771 307.446 40.4979 307.008C40.5396 306.55 40.6125 306.206 40.7167 305.977C40.8208 305.748 40.9563 305.664 41.1229 305.727C41.2896 305.789 41.5083 306.091 41.7792 306.633C41.8208 306.904 41.8625 307.373 41.9042 308.039C41.9667 308.706 42.0292 309.425 42.0917 310.196C42.1542 310.946 42.2063 311.654 42.2479 312.321C42.2896 312.987 42.3104 313.456 42.3104 313.727C42.3313 314.018 42.3417 314.425 42.3417 314.946C42.3625 315.446 42.3729 315.987 42.3729 316.571V320.164C42.3729 320.706 42.3625 321.175 42.3417 321.571C42.3417 321.987 42.3313 322.258 42.3104 322.383C42.3104 322.571 42.2583 322.935 42.1542 323.477C42.0708 324.039 41.9771 324.633 41.8729 325.258C41.7688 325.904 41.6542 326.518 41.5292 327.102C41.4042 327.685 41.3104 328.102 41.2479 328.352C41.1229 328.789 40.9458 329.237 40.7167 329.696C40.4875 330.154 40.2063 330.539 39.8729 330.852C39.5604 331.164 39.1958 331.352 38.7792 331.414C38.3833 331.498 37.9458 331.383 37.4667 331.071ZM58.9479 315.008C58.6146 315.696 58.3333 316.039 58.1042 316.039C57.875 316.06 57.6771 315.831 57.5104 315.352C57.3646 314.893 57.2396 314.237 57.1354 313.383C57.0521 312.529 56.9896 311.581 56.9479 310.539C56.9271 309.498 56.9271 308.404 56.9479 307.258C56.9688 306.112 57 305.008 57.0417 303.946C57.1042 302.883 57.1771 301.914 57.2604 301.039C57.3438 300.143 57.4271 299.446 57.5104 298.946C57.6146 298.425 57.7188 298.143 57.8229 298.102C57.9271 298.06 58.0313 298.341 58.1354 298.946C58.8021 298.446 59.5208 297.977 60.2917 297.539C61.0625 297.081 61.8542 296.706 62.6667 296.414C63.5 296.102 64.3333 295.904 65.1667 295.821C66.0208 295.737 66.8438 295.81 67.6354 296.039C67.7188 296.31 67.7292 296.623 67.6667 296.977C67.6042 297.331 67.4063 297.56 67.0729 297.664C66.7396 297.602 66.3021 297.571 65.7604 297.571C65.2188 297.571 64.6458 297.612 64.0417 297.696C63.4375 297.779 62.8333 297.914 62.2292 298.102C61.625 298.289 61.0729 298.539 60.5729 298.852C60.0938 299.143 59.6979 299.508 59.3854 299.946C59.0938 300.362 58.9479 300.862 58.9479 301.446V315.008ZM75.3979 313.727C74.8771 312.956 74.5646 312.102 74.4604 311.164C74.3563 310.206 74.3563 309.206 74.4604 308.164C74.5646 307.123 74.7313 306.071 74.9604 305.008C75.1896 303.946 75.3875 302.925 75.5542 301.946C75.7208 300.946 75.8146 300.018 75.8354 299.164C75.8563 298.289 75.7104 297.539 75.3979 296.914C75.2313 296.581 75.0021 296.425 74.7104 296.446C74.4396 296.446 74.1375 296.487 73.8042 296.571C73.4917 296.633 73.1688 296.654 72.8354 296.633C72.5229 296.612 72.2417 296.414 71.9917 296.039C72.0125 295.956 72.0958 295.852 72.2417 295.727C72.3667 295.581 72.4604 295.498 72.5229 295.477C74.3979 295.206 75.9604 295.404 77.2104 296.071C78.4813 296.716 79.4917 297.643 80.2417 298.852C80.9917 300.039 81.5021 301.404 81.7729 302.946C82.0646 304.487 82.1688 306.018 82.0854 307.539C82.0021 309.06 81.7625 310.477 81.3667 311.789C80.9708 313.081 80.4708 314.081 79.8667 314.789C79.2625 315.498 78.575 315.81 77.8042 315.727C77.0333 315.643 76.2313 314.977 75.3979 313.727ZM77.0229 312.633C77.0438 312.696 77.1063 312.779 77.2104 312.883C77.3146 312.987 77.4188 313.102 77.5229 313.227C77.6479 313.352 77.7625 313.466 77.8667 313.571C77.9708 313.654 78.0438 313.706 78.0854 313.727C78.8563 313.289 79.4292 312.696 79.8042 311.946C80.1792 311.196 80.3979 310.362 80.4604 309.446C80.5438 308.529 80.5021 307.571 80.3354 306.571C80.1896 305.55 79.9708 304.571 79.6792 303.633C79.3875 302.696 79.0438 301.831 78.6479 301.039C78.2729 300.248 77.9083 299.602 77.5542 299.102C77.5333 299.373 77.4917 299.789 77.4292 300.352C77.3667 300.914 77.3042 301.55 77.2417 302.258C77.1792 302.966 77.1063 303.716 77.0229 304.508C76.9396 305.3 76.8563 306.06 76.7729 306.789C76.7104 307.498 76.6479 308.133 76.5854 308.696C76.5229 309.258 76.4813 309.675 76.4604 309.946C76.4396 310.154 76.4396 310.393 76.4604 310.664C76.5021 310.914 76.5542 311.164 76.6167 311.414C76.6792 311.664 76.7417 311.904 76.8042 312.133C76.8875 312.341 76.9604 312.508 77.0229 312.633ZM84.5667 333.789C84.2542 333.373 84.0458 332.883 83.9417 332.321C83.8375 331.758 83.8063 331.175 83.8479 330.571C83.8896 329.966 83.9833 329.373 84.1292 328.789C84.2542 328.227 84.4 327.727 84.5667 327.289C84.65 327.039 84.7854 326.654 84.9729 326.133C85.1604 325.633 85.3792 325.06 85.6292 324.414C85.8792 323.768 86.1396 323.091 86.4104 322.383C86.6813 321.675 86.9417 320.998 87.1917 320.352C87.4625 319.727 87.7021 319.164 87.9104 318.664L88.3792 317.539C88.4625 316.706 88.4625 315.904 88.3792 315.133C88.2958 314.341 88.1708 313.571 88.0042 312.821C87.8375 312.071 87.6396 311.321 87.4104 310.571C87.1813 309.821 86.9521 309.06 86.7229 308.289C86.6396 308.018 86.65 307.8 86.7542 307.633C86.8792 307.446 87.0354 307.331 87.2229 307.289C87.4104 307.227 87.6083 307.237 87.8167 307.321C88.0458 307.383 88.2333 307.529 88.3792 307.758C88.7125 308.321 88.9625 308.893 89.1292 309.477C89.2958 310.039 89.4417 310.623 89.5667 311.227C89.6917 311.81 89.8167 312.404 89.9417 313.008C90.0667 313.612 90.2542 314.216 90.5042 314.821C90.7333 314.633 91.0979 314.331 91.5979 313.914C92.1188 313.477 92.6917 313.06 93.3167 312.664C93.9625 312.248 94.6083 311.914 95.2542 311.664C95.9208 311.414 96.5146 311.373 97.0354 311.539C97.0979 311.56 97.2021 311.643 97.3479 311.789C97.4938 311.914 97.5771 312.018 97.5979 312.102C97.4313 312.373 97.15 312.633 96.7542 312.883C96.3583 313.133 95.9 313.393 95.3792 313.664C94.8792 313.914 94.3583 314.164 93.8167 314.414C93.275 314.664 92.775 314.925 92.3167 315.196C91.8792 315.466 91.5146 315.748 91.2229 316.039C90.9313 316.352 90.7854 316.664 90.7854 316.977V328.383C90.7854 328.716 90.6917 329.164 90.5042 329.727C90.3375 330.289 90.0979 330.873 89.7854 331.477C89.4938 332.102 89.1396 332.685 88.7229 333.227C88.3271 333.789 87.8896 334.216 87.4104 334.508C86.9521 334.8 86.4833 334.904 86.0042 334.821C85.5042 334.758 85.025 334.414 84.5667 333.789ZM86.1917 328.383C86.1708 328.55 86.1604 328.831 86.1604 329.227C86.1396 329.643 86.1292 330.081 86.1292 330.539C86.1292 330.998 86.1396 331.435 86.1604 331.852C86.1604 332.268 86.1708 332.55 86.1917 332.696C86.2333 332.716 86.3167 332.727 86.4417 332.727C86.5875 332.727 86.6813 332.716 86.7229 332.696C87.0563 332.529 87.3479 332.164 87.5979 331.602C87.8688 331.039 88.0979 330.446 88.2854 329.821C88.4729 329.216 88.6188 328.654 88.7229 328.133C88.8479 327.633 88.9104 327.352 88.9104 327.289C88.9313 327.039 88.9417 326.602 88.9417 325.977C88.9625 325.373 88.9729 324.716 88.9729 324.008C88.9729 323.321 88.9625 322.664 88.9417 322.039C88.9417 321.435 88.9313 321.008 88.9104 320.758C88.2438 321.946 87.65 323.164 87.1292 324.414C86.6083 325.685 86.2958 327.008 86.1917 328.383ZM88.3792 299.071C88.2333 298.8 88.2333 298.571 88.3792 298.383C88.5458 298.175 88.7646 298.039 89.0354 297.977C89.3063 297.914 89.5875 297.925 89.8792 298.008C90.1708 298.091 90.3792 298.258 90.5042 298.508C90.6292 298.779 90.6083 299.008 90.4417 299.196C90.2958 299.362 90.0875 299.477 89.8167 299.539C89.5458 299.602 89.2646 299.602 88.9729 299.539C88.7021 299.477 88.5042 299.321 88.3792 299.071ZM104.142 314.821C103.267 314.133 102.569 313.331 102.048 312.414C101.548 311.477 101.163 310.477 100.892 309.414C100.767 309.518 100.579 309.633 100.329 309.758C100.079 309.883 99.8188 309.987 99.5479 310.071C99.2979 310.154 99.0479 310.216 98.7979 310.258C98.5479 310.279 98.3604 310.248 98.2354 310.164C98.1313 310.081 98.1 309.946 98.1417 309.758C98.2042 309.55 98.4021 309.248 98.7354 308.852C98.7771 308.789 98.9021 308.654 99.1104 308.446C99.3396 308.237 99.5792 308.018 99.8292 307.789C100.079 307.539 100.308 307.31 100.517 307.102C100.725 306.873 100.85 306.727 100.892 306.664C101.121 306.143 101.256 305.571 101.298 304.946C101.36 304.321 101.392 303.675 101.392 303.008C101.413 302.321 101.454 301.643 101.517 300.977C101.579 300.31 101.735 299.685 101.985 299.102C102.131 298.768 102.402 298.362 102.798 297.883C103.215 297.383 103.673 296.904 104.173 296.446C104.694 295.987 105.215 295.581 105.735 295.227C106.277 294.852 106.735 294.623 107.11 294.539C107.506 294.456 107.788 294.55 107.954 294.821C108.142 295.091 108.142 295.612 107.954 296.383C107.725 297.3 107.371 298.196 106.892 299.071C106.433 299.925 105.954 300.779 105.454 301.633C104.954 302.466 104.475 303.3 104.017 304.133C103.579 304.966 103.267 305.81 103.079 306.664C102.975 307.123 102.923 307.685 102.923 308.352C102.923 308.998 102.996 309.643 103.142 310.289C103.288 310.935 103.527 311.529 103.86 312.071C104.194 312.591 104.652 312.956 105.235 313.164C105.902 313.414 106.569 313.477 107.235 313.352C107.902 313.227 108.548 312.987 109.173 312.633C109.819 312.279 110.433 311.841 111.017 311.321C111.6 310.779 112.142 310.227 112.642 309.664C113.142 309.102 113.59 308.56 113.985 308.039C114.381 307.498 114.715 307.039 114.985 306.664L115.517 307.227C115.663 307.352 115.569 307.706 115.235 308.289C114.923 308.873 114.454 309.539 113.829 310.289C113.225 311.018 112.506 311.768 111.673 312.539C110.84 313.31 109.975 313.956 109.079 314.477C108.204 314.998 107.329 315.321 106.454 315.446C105.6 315.571 104.829 315.362 104.142 314.821ZM103.079 301.227C103.058 301.331 103.038 301.518 103.017 301.789C103.017 302.039 103.017 302.31 103.017 302.602C103.017 302.893 103.017 303.164 103.017 303.414C103.038 303.664 103.058 303.841 103.079 303.946C103.746 302.8 104.371 301.581 104.954 300.289C105.538 298.998 105.996 297.696 106.329 296.383C105.85 296.55 105.413 296.81 105.017 297.164C104.642 297.498 104.319 297.893 104.048 298.352C103.777 298.789 103.558 299.258 103.392 299.758C103.246 300.258 103.142 300.748 103.079 301.227ZM119.935 314.258C119.165 313.675 118.602 312.977 118.248 312.164C117.915 311.331 117.727 310.435 117.685 309.477C117.665 308.498 117.769 307.498 117.998 306.477C118.248 305.456 118.571 304.466 118.967 303.508C119.363 302.55 119.8 301.664 120.279 300.852C120.779 300.018 121.279 299.321 121.779 298.758C122.279 298.175 122.748 297.768 123.185 297.539C123.623 297.289 123.977 297.268 124.248 297.477C124.29 297.706 124.363 298.133 124.467 298.758C124.592 299.362 124.706 300.018 124.81 300.727C124.935 301.414 125.04 302.071 125.123 302.696C125.227 303.3 125.3 303.716 125.342 303.946C125.383 304.216 125.394 304.508 125.373 304.821C125.352 305.112 125.29 305.383 125.185 305.633C125.081 305.862 124.904 306.039 124.654 306.164C124.425 306.268 124.113 306.258 123.717 306.133C123.696 305.987 123.633 305.737 123.529 305.383C123.446 305.029 123.342 304.654 123.217 304.258C123.113 303.841 122.998 303.456 122.873 303.102C122.769 302.727 122.696 302.466 122.654 302.321L122.123 301.789C121.477 302.227 120.935 302.852 120.498 303.664C120.081 304.477 119.779 305.362 119.592 306.321C119.404 307.258 119.352 308.206 119.435 309.164C119.54 310.102 119.779 310.935 120.154 311.664C120.55 312.373 121.092 312.914 121.779 313.289C122.488 313.643 123.363 313.696 124.404 313.446C125.467 313.196 126.706 312.591 128.123 311.633C129.54 310.654 131.154 309.185 132.967 307.227V308.321C132.967 308.383 132.842 308.571 132.592 308.883C132.342 309.196 132.04 309.56 131.685 309.977C131.331 310.373 130.967 310.768 130.592 311.164C130.238 311.56 129.935 311.873 129.685 312.102C128.998 312.748 128.258 313.341 127.467 313.883C126.696 314.425 125.894 314.831 125.06 315.102C124.227 315.373 123.373 315.456 122.498 315.352C121.644 315.268 120.79 314.904 119.935 314.258ZM145.604 313.164C145.146 312.393 144.792 311.529 144.542 310.571C144.292 309.591 144.115 308.591 144.01 307.571C143.906 306.55 143.854 305.539 143.854 304.539C143.875 303.539 143.906 302.623 143.948 301.789C143.656 301.706 143.323 301.727 142.948 301.852C142.573 301.977 142.177 302.143 141.76 302.352C141.344 302.539 140.917 302.748 140.479 302.977C140.042 303.206 139.635 303.373 139.26 303.477C138.885 303.581 138.542 303.602 138.229 303.539C137.917 303.477 137.667 303.258 137.479 302.883C137.292 302.529 137.302 302.248 137.51 302.039C137.74 301.831 138.063 301.675 138.479 301.571C138.917 301.446 139.417 301.362 139.979 301.321C140.542 301.258 141.073 301.185 141.573 301.102C142.073 301.018 142.5 300.914 142.854 300.789C143.208 300.643 143.396 300.435 143.417 300.164L144.51 288.258C144.531 288.071 144.625 287.925 144.792 287.821C144.979 287.716 145.167 287.664 145.354 287.664C145.563 287.664 145.74 287.716 145.885 287.821C146.052 287.904 146.135 288.05 146.135 288.258V298.539C146.427 298.602 146.708 298.602 146.979 298.539C147.25 298.456 147.521 298.362 147.792 298.258C148.063 298.154 148.323 298.071 148.573 298.008C148.844 297.946 149.125 297.946 149.417 298.008C149.542 298.237 149.521 298.456 149.354 298.664C149.188 298.852 149.021 298.998 148.854 299.102L148.292 299.446C148.042 299.591 147.771 299.758 147.479 299.946C147.208 300.112 146.938 300.268 146.667 300.414C146.417 300.56 146.24 300.654 146.135 300.696C146.115 300.987 146.094 301.498 146.073 302.227C146.073 302.935 146.073 303.696 146.073 304.508C146.073 305.321 146.073 306.091 146.073 306.821C146.094 307.529 146.115 308.029 146.135 308.321C146.219 309.3 146.406 310.196 146.698 311.008C146.99 311.821 147.385 312.456 147.885 312.914C148.385 313.373 148.979 313.602 149.667 313.602C150.375 313.602 151.198 313.279 152.135 312.633C152.281 313.112 152.271 313.539 152.104 313.914C151.938 314.289 151.667 314.591 151.292 314.821C150.917 315.029 150.469 315.164 149.948 315.227C149.427 315.289 148.896 315.258 148.354 315.133C147.833 315.008 147.323 314.789 146.823 314.477C146.323 314.143 145.917 313.706 145.604 313.164ZM173.785 313.164C173.931 312.143 174.181 311.175 174.535 310.258C174.91 309.321 175.39 308.477 175.973 307.727C176.577 306.956 177.275 306.3 178.067 305.758C178.879 305.216 179.796 304.8 180.817 304.508C181.317 303.591 181.796 302.633 182.254 301.633C182.713 300.612 183.098 299.571 183.41 298.508C183.744 297.446 183.973 296.373 184.098 295.289C184.223 294.185 184.213 293.102 184.067 292.039L179.723 295.821H178.66V294.758L183.535 289.852C183.931 289.456 184.296 289.268 184.629 289.289C184.983 289.31 185.285 289.435 185.535 289.664C185.785 289.893 185.973 290.185 186.098 290.539C186.223 290.893 186.275 291.206 186.254 291.477C186.213 291.727 186.16 292.06 186.098 292.477C186.056 292.893 186.004 293.31 185.942 293.727C185.9 294.123 185.848 294.477 185.785 294.789C185.744 295.102 185.723 295.268 185.723 295.289C185.64 295.602 185.473 296.143 185.223 296.914C184.973 297.685 184.702 298.508 184.41 299.383C184.119 300.237 183.838 301.05 183.567 301.821C183.317 302.591 183.129 303.123 183.004 303.414C182.692 303.727 182.598 303.987 182.723 304.196C182.848 304.404 183.056 304.571 183.348 304.696C183.681 304.841 184.108 304.956 184.629 305.039C185.108 305.081 185.65 305.06 186.254 304.977C186.879 304.893 187.515 304.779 188.16 304.633C188.827 304.487 189.483 304.331 190.129 304.164C190.796 303.998 191.41 303.852 191.973 303.727C192.535 303.581 193.025 303.477 193.442 303.414C193.858 303.352 194.171 303.352 194.379 303.414C194.483 303.456 194.608 303.55 194.754 303.696C194.9 303.821 194.952 303.904 194.91 303.946L193.848 305.602C193.806 305.664 193.567 305.779 193.129 305.946C192.692 306.112 192.181 306.279 191.598 306.446C191.035 306.612 190.452 306.779 189.848 306.946C189.265 307.091 188.796 307.185 188.442 307.227C188.171 307.268 187.702 307.3 187.035 307.321C186.369 307.321 185.65 307.321 184.879 307.321C184.129 307.321 183.421 307.321 182.754 307.321C182.088 307.3 181.619 307.268 181.348 307.227C181.223 307.435 180.983 307.8 180.629 308.321C180.275 308.841 179.9 309.393 179.504 309.977C179.108 310.539 178.723 311.081 178.348 311.602C177.973 312.102 177.713 312.446 177.567 312.633C177.4 312.841 177.181 313.112 176.91 313.446C176.66 313.779 176.369 314.091 176.035 314.383C175.723 314.654 175.369 314.852 174.973 314.977C174.577 315.102 174.181 315.05 173.785 314.821C173.785 314.758 173.775 314.654 173.754 314.508C173.754 314.341 173.754 314.175 173.754 314.008C173.754 313.821 173.754 313.654 173.754 313.508C173.775 313.341 173.785 313.227 173.785 313.164ZM175.41 312.914C175.265 312.914 175.192 313.008 175.192 313.196C175.192 313.383 175.265 313.477 175.41 313.477C175.535 313.477 175.598 313.383 175.598 313.196C175.598 313.008 175.535 312.914 175.41 312.914ZM175.942 311.008C175.921 311.091 175.91 311.268 175.91 311.539C175.91 311.81 175.921 311.998 175.942 312.102H176.504L179.723 307.227H179.192C179.067 307.227 178.838 307.373 178.504 307.664C178.192 307.935 177.858 308.268 177.504 308.664C177.15 309.039 176.817 309.446 176.504 309.883C176.213 310.321 176.025 310.696 175.942 311.008Z" fill="white"/>
</svg>
