<svg viewBox="0 0 261 93" width="100%" height="100%" fill="none" xmlns="http://www.w3.org/2000/svg">
<g clip-path="url(#clip0_5_11)">
<path d="M173.362 45.9434C202.904 40.8887 231.01 29.275 260.91 25.6946C261.209 27.4998 260.342 27.4697 259.684 27.5901C242.821 30.5988 226.794 37.2782 210.379 41.5807C197.073 45.0407 183.468 47.5982 170.223 51.2087C151.146 56.1731 131.651 58.0385 112.096 59.934C97.1461 61.3782 81.9568 62.2206 67.4551 66.9744C66.3957 67.1229 65.411 67.6078 64.6445 68.3585C61.81 72.0364 58.2719 75.1055 54.2391 77.3847C52.1461 78.6785 51.4285 80.8748 50.1428 82.7101C49.4632 83.9881 48.4228 85.035 47.1528 85.7189C46.4352 86.0198 45.7175 86.0198 45.3587 85.1773C44.9999 84.3349 44.5215 83.703 45.3587 82.9508C48.9468 79.7315 50.3222 74.4361 55.4053 72.4805C50.6212 72.4805 46.7641 74.9476 42.5183 76.1511C30.2292 79.6413 18.8073 85.3879 7.05642 90.2019C6.53687 90.3227 6.04681 90.5475 5.61533 90.8628C5.18385 91.1781 4.81978 91.5775 4.5448 92.0372C3.79729 93.4814 2.57142 93 1.4053 92.6089C1.0518 92.5448 0.728856 92.3659 0.485884 92.0997C0.242913 91.8335 0.0932383 91.4945 0.0597534 91.1346C0.0597534 89.7205 1.10627 89.4196 2.12288 88.9984C18.5681 82.1084 35.0132 75.1281 51.877 69.4115C55.0165 68.3584 57.857 66.824 61.1162 65.771C62.2478 65.3083 63.2563 64.5858 64.061 63.6611C64.8657 62.7365 65.4443 61.6353 65.7508 60.4455C62.2524 60.4455 58.6345 58.4297 55.6145 61.7694C52.8338 59.4527 51.0099 62.3109 48.7375 62.8525C45.2093 63.6949 46.5846 60.4455 46.0763 58.5199C43.4451 59.3323 42.279 61.9197 40.2458 63.394C39.1096 64.2064 38.0631 65.9214 36.6877 64.8081C35.3122 63.6949 36.5381 62.0401 37.4052 60.8066C39.0832 58.4962 40.4786 55.9909 41.5614 53.3449C41.8903 52.5024 42.5182 51.66 41.5614 50.5166C39.0897 52.4976 36.8434 54.7478 34.8637 57.2262C32.1428 59.7535 29.5714 62.4313 26.8504 64.9586C25.7142 66.0117 24.1594 67.0347 22.6644 66.102C21.1694 65.1693 21.3786 63.0932 21.9767 61.5286C23.5913 57.2261 25.3854 52.9838 27.2691 48.3805C21.289 49.9751 16.774 51.7202 13.9335 57.4067C11.3534 61.4122 8.29029 65.0807 4.8139 68.3284C4.27569 68.9602 3.4983 69.6221 2.78069 68.5691C2.06309 67.516 2.78064 67.3656 3.46834 66.8842C6.6704 63.8379 9.51921 60.4364 11.9601 56.7447C12.8571 55.5413 13.9036 54.4581 13.0365 52.5927C12.4983 51.4494 13.3953 50.1255 14.4119 49.5839C21.8571 44.9204 26.6711 37.8198 31.7541 30.8997C36.1196 24.8823 41.0232 19.4063 44.8206 12.9977C45.2758 12.2889 45.8529 11.6674 46.5249 11.1624C47.6611 10.32 49.0066 9.23681 50.3521 10.2899C51.6976 11.3429 50.98 12.8473 50.3521 14.2313C47.3621 21.3921 42.4883 27.3494 38.5415 33.8783C37.1921 35.71 36.2536 37.8144 35.7907 40.0463C58.1993 24.8884 81.7644 11.538 106.266 0.120331C104.475 2.46731 102.089 4.28601 99.3587 5.38562C83.6312 13.8101 68.9501 24.0098 53.4617 32.9156C46.3753 36.9774 39.9468 42.2427 32.5315 45.7027C31.9871 45.9421 31.5355 46.3542 31.2458 46.8761C29.1528 51.66 27.1494 56.4439 25.2657 61.4384C27.8884 60.0778 30.224 58.2181 32.1428 55.9624C35.701 52.2918 39.1694 48.5309 42.7275 44.8302C43.8039 43.6869 45.1494 42.4232 46.7641 43.5063C48.3787 44.5895 47.2126 46.1239 46.7641 47.4177C45.9567 49.614 45.0896 51.8104 44.1328 54.3678C45.9866 54.3678 47.4218 52.6528 48.7973 53.7962C50.1727 54.9395 49.3953 56.805 49.8139 58.5801C53.7906 54.9095 58.1561 57.4368 62.3421 57.6173C63.3737 57.6801 64.4039 57.4727 65.3321 57.0155C66.7076 56.3536 68.3222 55.3908 69.608 56.8049C70.8937 58.219 69.7873 59.8137 69.0398 61.1075L67.8737 63.3339C73.8291 61.5799 79.9056 60.2726 86.0531 59.4226C89.3721 59.0013 93.4385 59.4225 95.7109 57.5872C97.9833 55.7519 98.7009 52.1113 100.465 49.6442C108.688 38.6021 113.621 25.5743 122.502 14.8632C124.355 12.2317 126.604 9.90708 129.169 7.97318C130.066 7.40152 131.053 6.64935 132.159 7.61214C133.266 8.57494 132.638 9.56782 132.159 10.6209C129.169 17.1197 125.791 23.4983 123.189 30.1777C120.199 37.6694 115.953 44.7399 115.296 53.5555C117.573 52.1528 119.408 50.1288 120.588 47.7185C124.24 42.2705 128.172 37.0181 132.369 31.9828C133.63 30.532 135.078 29.2572 136.674 28.1919C139.216 26.5371 140.771 27.4397 140.771 30.5086C140.771 32.0731 140.382 33.2766 142.804 32.6448C144.598 32.1934 145.794 33.4572 145.794 35.3226C145.794 36.496 145.794 37.6995 145.794 39.1737C149.514 38.9689 153.212 39.8575 156.438 41.7312C157.634 42.3028 158.233 41.7312 158.92 41.0391C160.086 40.0463 161.103 38.9029 162.299 38.0304C166.156 34.8412 169.774 36.2252 171.269 41.5507C174.708 39.5649 177.07 35.7137 181.525 35.5332C182.811 35.5332 183.618 36.2553 185.621 37.0977C180.873 38.8507 176.544 41.5876 172.914 45.1311L171.807 45.7629C172.196 46.485 172.914 46.0938 173.362 45.9434ZM44.7906 18.6843C45.6278 18.4737 45.5382 17.8419 45.5083 17.21C46.0465 17.21 46.1959 16.7888 46.166 16.3375C46.1361 15.8861 45.9269 16.1268 45.7774 16.0366C45.7774 16.4578 45.7774 16.879 45.5681 17.2702C44.5814 17.2702 44.7309 18.0825 44.8505 18.7444C44.2226 18.5037 44.1628 18.9851 44.103 19.4063C43.4963 19.8234 43.0253 20.4112 42.7488 21.0962C42.4722 21.7811 42.4024 22.5329 42.5481 23.2575L44.3122 19.6771L44.7906 18.6843ZM137.213 31.6218C135.598 31.8625 134.85 33.2466 134.013 34.2996C128.661 40.974 123.67 47.9343 119.063 55.1501C136.623 54.0914 154.022 51.1667 170.97 46.4248C169.415 45.3116 167.711 45.3417 167.292 43.4161C166.365 39.2038 165.887 39.1436 162.598 42.1524C162 42.724 161.432 43.2957 160.774 43.8372C159.971 44.7934 158.831 45.3995 157.594 45.5285C156.356 45.6575 155.117 45.2994 154.136 44.5293C150.339 42.032 147.528 42.7842 144.299 46.2142C143.282 47.3274 142.415 47.9893 140.95 47.1168C139.485 46.2442 139.874 45.0709 140.173 43.9576C141.044 41.8855 141.657 39.7127 141.997 37.4889C139.485 40.4976 137.452 43.1453 135.149 45.5523C134.043 46.6956 133.146 49.4335 131.083 48.0194C129.02 46.6053 131.083 44.6797 131.92 43.2054C134.347 39.7873 136.186 35.9836 137.362 31.9528C137.721 31.7422 137.811 31.5015 137.362 31.2006L137.213 31.6218ZM128.063 12.7872C123.13 16.2171 98.7009 54.1271 98.97 57.4969L104.621 56.8951C106.994 56.9972 109.366 56.6607 111.618 55.9023C113.801 54.6988 112.156 51.5697 112.993 49.4335C113.173 49.0123 113.262 48.5309 113.412 48.0796C115.648 41.266 118.315 34.6031 121.395 28.1316C123.458 23.1071 126.06 18.3232 128.063 12.7872ZM41.7408 23.7389C34.3853 29.275 30.9169 38.0304 24.6678 44.5293C27.2691 43.8373 30.0199 43.3859 31.4252 40.9188C34.6544 35.142 38.0331 29.4856 41.681 23.7389H41.7408ZM43.0564 48.4406C42.6079 48.8317 42.279 49.0123 42.1295 49.3132C41.98 49.614 41.2026 50.5167 42.1295 50.5468C43.0565 50.5768 43.3255 49.6742 42.9966 48.4406H43.0564ZM23.9501 45.101C23.9501 45.101 23.8006 44.8602 23.7109 44.8602C23.6212 44.8602 23.5315 44.8602 23.4418 45.0708C23.3521 45.2815 23.5913 45.2815 23.681 45.2815C23.7707 45.2815 23.8006 45.1611 23.8903 45.101H23.9501Z" fill="#F04FEA"/>
</g>
<defs>
<clipPath id="clip0_5_11">
<rect width="261" height="93" fill="white"/>
</clipPath>
</defs>
</svg>
